<svg width="57" height="57" viewBox="0 0 57 57" fill="none" xmlns="http://www.w3.org/2000/svg">
<g clip-path="url(#clip0)">
<path d="M0.455078 1.0365V55.6365H56.4551V1.0365H0.455078ZM2.78841 3.36983H54.1217V53.3032H2.78841V3.36983ZM13.9884 13.8232C13.9884 13.6668 14.3151 13.5525 14.5111 13.5525C16.0137 13.4755 18.2164 13.4358 20.5264 13.4358C26.9944 13.4358 29.5097 16.9825 29.5097 21.5232C29.5097 27.4498 25.2117 29.9932 19.9384 29.9932C19.0517 29.9932 18.7484 29.9535 18.1301 29.9535V38.9182C18.1301 39.1118 18.0531 39.1888 17.8617 39.1888H14.2591C14.0654 39.1888 13.9907 39.1188 13.9907 38.9252V13.8232H13.9884ZM18.1301 26.2178C18.6667 26.2552 19.0914 26.2552 20.0201 26.2552C22.7501 26.2552 25.3167 25.2938 25.3167 21.5978C25.3167 18.6345 23.4827 17.1318 20.3654 17.1318C19.6204 17.1283 18.8755 17.154 18.1324 17.2088V26.2248L18.1301 26.2178ZM38.2131 23.4458C36.3651 23.4458 35.7491 24.3698 35.7491 25.1398C35.7491 25.9868 36.1691 26.5632 38.6354 27.8348C42.2941 29.6082 43.4467 31.2998 43.4467 33.8012C43.4467 37.5345 40.6001 39.5412 36.7501 39.5412C34.7061 39.5412 32.9701 39.1142 31.9667 38.5378C31.8151 38.4608 31.7801 38.3465 31.7801 38.1528V34.7298C31.7801 34.4965 31.8921 34.4195 32.0461 34.5338C33.4436 35.441 35.0746 35.9226 36.7407 35.9198C38.5887 35.9198 39.3587 35.1498 39.3587 34.1092C39.3587 33.2622 38.8221 32.5295 36.4724 31.2975C33.1591 29.7108 31.7731 28.1008 31.7731 25.4012C31.7731 22.3982 34.1204 19.8945 38.2014 19.8945C40.2081 19.8945 41.6174 20.2025 42.3874 20.5478C42.5787 20.6645 42.6207 20.8558 42.6207 21.0098V24.2065C42.6207 24.4002 42.5041 24.5168 42.2707 24.4398C41.2347 23.8238 39.7041 23.4365 38.2037 23.4365L38.2131 23.4458Z" fill="#8BC3FC"/>
<rect x="3" y="3" width="51" height="51" fill="#3C327B"/>
<path d="M13.9885 13.8231C13.9885 13.6668 14.3152 13.5525 14.5112 13.5525C16.0139 13.4755 18.2165 13.4358 20.5265 13.4358C26.9945 13.4358 29.5099 16.9825 29.5099 21.5231C29.5099 27.4498 25.2119 29.9931 19.9385 29.9931C19.0519 29.9931 18.7485 29.9535 18.1302 29.9535V38.9181C18.1302 39.1118 18.0532 39.1888 17.8619 39.1888H14.2592C14.0655 39.1888 13.9909 39.1188 13.9909 38.9251V13.8231H13.9885ZM18.1302 26.2178C18.6669 26.2551 19.0915 26.2551 20.0202 26.2551C22.7502 26.2551 25.3169 25.2938 25.3169 21.5978C25.3169 18.6345 23.4829 17.1318 20.3655 17.1318C19.6205 17.1282 18.8756 17.1539 18.1325 17.2088V26.2248L18.1302 26.2178ZM38.2132 23.4458C36.3652 23.4458 35.7492 24.3698 35.7492 25.1398C35.7492 25.9868 36.1692 26.5631 38.6355 27.8348C42.2942 29.6081 43.4469 31.2998 43.4469 33.8011C43.4469 37.5345 40.6002 39.5411 36.7502 39.5411C34.7062 39.5411 32.9702 39.1141 31.9669 38.5378C31.8152 38.4608 31.7802 38.3465 31.7802 38.1528V34.7298C31.7802 34.4965 31.8922 34.4195 32.0462 34.5338C33.4437 35.441 35.0747 35.9225 36.7409 35.9198C38.5889 35.9198 39.3589 35.1498 39.3589 34.1091C39.3589 33.2621 38.8222 32.5295 36.4725 31.2975C33.1592 29.7108 31.7732 28.1008 31.7732 25.4011C31.7732 22.3981 34.1205 19.8945 38.2015 19.8945C40.2082 19.8945 41.6175 20.2025 42.3875 20.5478C42.5789 20.6645 42.6209 20.8558 42.6209 21.0098V24.2065C42.6209 24.4001 42.5042 24.5168 42.2709 24.4398C41.2349 23.8238 39.7042 23.4365 38.2039 23.4365L38.2132 23.4458Z" fill="#8BC3FC"/>
</g>
<defs>
<clipPath id="clip0">
<rect x="0.455078" y="0.336426" width="56" height="56" fill="white"/>
</clipPath>
</defs>
</svg>
