<svg width="57" height="57" viewBox="0 0 57 57" fill="none" xmlns="http://www.w3.org/2000/svg">
<g clip-path="url(#clip0)">
<path d="M0.909668 1.0365V55.6365H56.9097V1.0365H0.909668ZM3.243 3.36983H54.5763V53.3032H3.243V3.36983ZM16.739 31.9532L14.891 38.9205C14.8513 39.1142 14.7743 39.1842 14.5457 39.1842H11.1203C10.887 39.1842 10.8497 39.1025 10.887 38.8342L17.5137 15.6572C17.6303 15.2372 17.705 14.8988 17.7423 13.7438C17.7423 13.5898 17.8193 13.5105 17.936 13.5105H22.8267C22.9807 13.5105 23.06 13.5525 23.0973 13.7438L30.5243 38.8738C30.5617 39.0652 30.5243 39.1772 30.3307 39.1772H26.4807C26.2893 39.1772 26.1773 39.1072 26.1377 38.9532L24.2127 31.9485H16.746L16.739 31.9532ZM23.2863 28.1638C22.633 25.5832 21.0463 19.9272 20.4723 17.1972H20.435C19.9357 19.9272 18.671 24.5425 17.705 28.1638H23.2863ZM35.793 30.5532C35.8327 33.7102 37.333 35.8265 40.875 35.8265C42.261 35.8265 43.4487 35.6445 44.6783 35.1032C44.8347 35.0285 44.9513 35.0682 44.9513 35.2595V38.1855C44.9513 38.4188 44.8743 38.5355 44.718 38.6522C43.4883 39.2682 41.9553 39.5388 40.028 39.5388C33.868 39.5388 31.558 34.9958 31.558 29.9138C31.558 24.4072 34.4093 19.9038 39.4143 19.9038C44.4963 19.9038 46.2673 24.1808 46.2673 27.6435C46.2673 28.7635 46.1857 29.6875 46.069 30.1098C46.0293 30.3012 45.9523 30.3665 45.761 30.4062C45.299 30.4832 43.913 30.5602 41.8713 30.5602H35.793V30.5532ZM40.5297 27.3448C41.7243 27.3448 42.1467 27.3448 42.261 27.3075C42.261 27.1488 42.3007 27.0158 42.3007 26.9015C42.3007 25.6298 41.68 23.2988 39.2533 23.2988C37.0203 23.2988 36.0567 25.2635 35.828 27.3402H40.525L40.5297 27.3448Z" fill="#CF96FD"/>
<path d="M3 53.5V3H54.7591V53.5H3Z" fill="#393665"/>
<path d="M16.739 31.9532L14.891 38.9205C14.8514 39.1142 14.7744 39.1842 14.5457 39.1842H11.1204C10.887 39.1842 10.8497 39.1025 10.887 38.8342L17.5137 15.6572C17.6304 15.2372 17.705 14.8988 17.7424 13.7438C17.7424 13.5898 17.8194 13.5105 17.936 13.5105H22.8267C22.9807 13.5105 23.06 13.5525 23.0974 13.7438L30.5244 38.8738C30.5617 39.0652 30.5244 39.1772 30.3307 39.1772H26.4807C26.2894 39.1772 26.1774 39.1072 26.1377 38.9532L24.2127 31.9485H16.746L16.739 31.9532ZM23.2864 28.1638C22.633 25.5832 21.0464 19.9272 20.4724 17.1972H20.435C19.9357 19.9272 18.671 24.5425 17.705 28.1638H23.2864ZM35.793 30.5532C35.8327 33.7102 37.333 35.8265 40.875 35.8265C42.261 35.8265 43.4487 35.6445 44.6784 35.1032C44.8347 35.0285 44.9514 35.0682 44.9514 35.2595V38.1855C44.9514 38.4188 44.8744 38.5355 44.718 38.6522C43.4884 39.2682 41.9554 39.5388 40.028 39.5388C33.868 39.5388 31.558 34.9958 31.558 29.9138C31.558 24.4072 34.4094 19.9038 39.4144 19.9038C44.4964 19.9038 46.2674 24.1808 46.2674 27.6435C46.2674 28.7635 46.1857 29.6875 46.069 30.1098C46.0294 30.3012 45.9524 30.3665 45.761 30.4062C45.299 30.4832 43.913 30.5602 41.8714 30.5602H35.793V30.5532ZM40.5297 27.3448C41.7244 27.3448 42.1467 27.3448 42.261 27.3075C42.261 27.1488 42.3007 27.0158 42.3007 26.9015C42.3007 25.6298 41.68 23.2988 39.2534 23.2988C37.0204 23.2988 36.0567 25.2635 35.828 27.3402H40.525L40.5297 27.3448Z" fill="#CF96FD"/>
</g>
<defs>
<clipPath id="clip0">
<rect x="0.909668" y="0.336426" width="56" height="56" fill="white"/>
</clipPath>
</defs>
</svg>
