<svg width="57" height="57" viewBox="0 0 57 57" fill="none" xmlns="http://www.w3.org/2000/svg">
<g clip-path="url(#clip0)">
<path d="M0.455078 1.45239V56.0524H56.4551V1.45239H0.455078ZM2.78841 3.78573H54.1217V53.7191H2.78841V3.78573ZM19.8801 32.3691L18.0321 39.3644C17.9924 39.5581 17.9154 39.6024 17.6867 39.6024H14.2614C14.0281 39.6024 13.9931 39.5254 14.0281 39.2571L20.6547 16.0521C20.7714 15.6321 20.8461 15.2634 20.8834 14.1084C20.8834 13.9544 20.9604 13.8751 21.0771 13.8751H25.9677C26.1217 13.8751 26.2011 13.9171 26.2384 14.1084L33.6701 39.2944C33.7097 39.4881 33.6701 39.6024 33.4764 39.6024H29.6264C29.4327 39.6024 29.3184 39.5557 29.2811 39.4017L27.3561 32.3667H19.8731L19.8801 32.3691ZM26.3854 28.5774C25.7321 25.9967 24.1921 20.3454 23.6134 17.6107H23.5737C23.0744 20.3407 21.8424 24.9607 20.8787 28.5774H26.3854ZM36.8854 15.6087C36.8854 14.1084 37.9237 13.2217 39.2724 13.2217C40.6957 13.2217 41.6594 14.1831 41.6594 15.6087C41.6594 17.1487 40.6561 17.9957 39.2327 17.9957C37.8327 17.9957 36.8761 17.1487 36.8761 15.6087H36.8854ZM37.1467 20.9147C37.1467 20.7281 37.2237 20.6581 37.4174 20.6581H41.0807C41.2861 20.6581 41.3607 20.7351 41.3607 20.9287V39.3504C41.3607 39.5441 41.3234 39.6211 41.0924 39.6211H37.4757C37.2424 39.6211 37.1654 39.5044 37.1654 39.3177V20.9124L37.1467 20.9147Z" fill="#FBBB4D"/>
<rect x="2.78516" y="3.75342" width="51.5" height="50" fill="#5F4B26"/>
<path d="M19.88 32.369L18.032 39.3643C17.9923 39.558 17.9153 39.6023 17.6866 39.6023H14.2613C14.028 39.6023 13.993 39.5253 14.028 39.257L20.6546 16.052C20.7713 15.632 20.846 15.2633 20.8833 14.1083C20.8833 13.9543 20.9603 13.875 21.077 13.875H25.9676C26.1216 13.875 26.201 13.917 26.2383 14.1083L33.67 39.2943C33.7096 39.488 33.67 39.6023 33.4763 39.6023H29.6263C29.4326 39.6023 29.3183 39.5557 29.281 39.4017L27.356 32.3667H19.873L19.88 32.369ZM26.3853 28.5773C25.732 25.9967 24.192 20.3453 23.6133 17.6107H23.5736C23.0743 20.3407 21.8423 24.9607 20.8786 28.5773H26.3853ZM36.8853 15.6087C36.8853 14.1083 37.9236 13.2217 39.2723 13.2217C40.6956 13.2217 41.6593 14.183 41.6593 15.6087C41.6593 17.1487 40.656 17.9957 39.2326 17.9957C37.8326 17.9957 36.876 17.1487 36.876 15.6087H36.8853ZM37.1466 20.9147C37.1466 20.728 37.2236 20.658 37.4173 20.658H41.0806C41.286 20.658 41.3606 20.735 41.3606 20.9287V39.3503C41.3606 39.544 41.3233 39.621 41.0923 39.621H37.4756C37.2423 39.621 37.1653 39.5043 37.1653 39.3177V20.9123L37.1466 20.9147Z" fill="#FBBB4D"/>
</g>
<defs>
<clipPath id="clip0">
<rect x="0.455078" y="0.752441" width="56" height="56" fill="white"/>
</clipPath>
</defs>
</svg>
