<svg width="56" height="56" viewBox="0 0 56 56" fill="none" xmlns="http://www.w3.org/2000/svg">
<path d="M0 0.70166V55.2982H56V0.70166H0ZM2.33275 3.03441H53.6655V52.9637H2.33275V3.03441ZM14.693 13.4802C14.693 13.3244 14.7298 13.2072 14.9293 13.2072C16.9273 13.1258 18.9268 13.089 20.9265 13.0969C27.398 13.0969 30.205 16.6424 30.205 21.1819C30.205 27.1057 25.921 29.6502 20.643 29.6502C19.7592 29.6502 19.4495 29.6134 18.83 29.6134V38.5822C18.83 38.7729 18.7565 38.8464 18.5658 38.8464H14.966C14.7648 38.8464 14.693 38.7729 14.693 38.5822V13.4802ZM18.83 25.8754C19.3778 25.9122 19.796 25.9122 20.7253 25.9122C23.45 25.9122 26.012 24.9549 26.012 21.2554C26.012 18.2927 24.1885 16.7894 21.063 16.7894C20.1425 16.7894 19.2588 16.8349 18.83 16.8717V25.8754ZM33.7698 23.7614C33.7698 23.4884 33.7697 22.7954 33.6507 21.4917C33.6507 21.3009 33.6787 21.2554 33.8327 21.1819C36.556 20.1342 39.4462 19.5875 42.364 19.5684C42.5547 19.5684 42.637 19.6052 42.637 19.7959V23.1874C42.637 23.3782 42.574 23.4149 42.3815 23.4149C40.8952 23.3221 39.4039 23.4795 37.9697 23.8804V38.5822C37.9697 38.7729 37.8875 38.8464 37.6968 38.8464H34.0322C33.8415 38.8464 33.768 38.7729 33.768 38.5822L33.7698 23.7614Z" fill="#DB76FA"/>
<path d="M2 53V3H54V53H2Z" fill="#523A5C"/>
<path d="M14.6931 13.4802C14.6931 13.3245 14.7299 13.2072 14.9294 13.2072C16.9274 13.1258 18.927 13.0891 20.9266 13.097C27.3981 13.097 30.2051 16.6425 30.2051 21.182C30.2051 27.1057 25.9211 29.6503 20.6431 29.6503C19.7594 29.6503 19.4496 29.6135 18.8301 29.6135V38.5823C18.8301 38.773 18.7566 38.8465 18.5659 38.8465H14.9661C14.7649 38.8465 14.6931 38.773 14.6931 38.5823V13.4802ZM18.8301 25.8755C19.3779 25.9122 19.7961 25.9122 20.7254 25.9122C23.4501 25.9122 26.0121 24.955 26.0121 21.2555C26.0121 18.2927 24.1886 16.7895 21.0631 16.7895C20.1426 16.7895 19.2589 16.835 18.8301 16.8717V25.8755ZM33.7699 23.7615C33.7699 23.4885 33.7699 22.7955 33.6509 21.4917C33.6509 21.301 33.6789 21.2555 33.8329 21.182C36.5561 20.1343 39.4464 19.5876 42.3641 19.5685C42.5549 19.5685 42.6371 19.6052 42.6371 19.796V23.1875C42.6371 23.3782 42.5741 23.415 42.3816 23.415C40.8953 23.3222 39.404 23.4796 37.9699 23.8805V38.5823C37.9699 38.773 37.8876 38.8465 37.6969 38.8465H34.0324C33.8416 38.8465 33.7681 38.773 33.7681 38.5823L33.7699 23.7615Z" fill="#DB76FA"/>
</svg>
