<svg width="56" height="56" viewBox="0 0 56 56" fill="none" xmlns="http://www.w3.org/2000/svg">
<g clip-path="url(#clip0)">
<path d="M29.195 30.8348C29.2948 28.9658 30.2153 27.3156 31.5908 26.1501C33.0435 24.9482 34.8731 24.2964 36.7585 24.3091C38.7378 24.3091 40.5595 25.0108 41.9175 26.1501C43.2948 27.3173 44.2048 28.9658 44.3133 30.8348C44.413 32.7476 43.6483 34.5361 42.2903 35.8556C40.8016 37.2775 38.8171 38.0629 36.7585 38.0448C34.694 38.064 32.7031 37.2788 31.2075 35.8556C29.8583 34.5343 29.0848 32.7476 29.1933 30.8348H29.195ZM17.155 34.6078C17.162 35.3376 17.4 36.7586 17.7448 37.8698C18.5 40.2578 19.7694 42.4512 21.4635 44.2958C23.278 46.2924 25.4917 47.8854 27.9613 48.9718C30.6527 50.1547 33.5631 50.7576 36.503 50.7411C39.4441 50.75 42.354 50.1388 45.043 48.9473C47.5105 47.8488 49.7231 46.25 51.5408 44.2521C53.2282 42.3966 54.4938 40.1979 55.2508 37.8068C55.9799 35.4896 56.1791 33.0381 55.8335 30.6336C55.5077 28.3308 54.6996 26.1226 53.4623 24.1533C52.3218 22.3163 50.8579 20.7012 49.1415 19.3863L31.6065 5.91308C30.4585 5.02933 28.5265 5.03808 27.2683 5.91308C25.9925 6.80733 25.8455 8.28433 26.9743 9.22233L34.2683 15.1566L12.0013 15.1846C10.1585 15.1846 8.40151 16.3868 8.04451 17.9198C7.68926 19.4686 8.92826 20.7548 10.8428 20.7618L22.118 20.7461L1.92125 36.2388C0.026005 37.6878 -0.584745 40.1116 0.610505 41.6358C1.8215 43.1951 4.40275 43.1951 6.32425 41.6446L17.2985 32.6653C17.2985 32.6653 17.1358 33.8781 17.1533 34.6061L17.155 34.6078ZM45.3615 38.6626C43.0935 40.9708 39.9295 42.2816 36.5048 42.2816C33.0765 42.2903 29.9038 40.9953 27.6445 38.6993C26.576 37.6234 25.7517 36.33 25.2278 34.9071C24.7483 33.5699 24.559 32.1459 24.6724 30.7299C24.7859 29.3138 25.1995 27.9381 25.8858 26.6943C26.5709 25.4673 27.4831 24.3816 28.5738 23.4953C30.7718 21.7103 33.57 20.7443 36.5048 20.7356C39.429 20.7356 42.229 21.6928 44.4235 23.4778C45.5191 24.3563 46.4323 25.4407 47.1115 26.6698C47.7958 27.8896 48.2158 29.2476 48.3348 30.6528C48.4618 32.0829 48.2724 33.5234 47.78 34.8721C47.2525 36.2933 46.4287 37.5859 45.3633 38.6643L45.3615 38.6626Z" fill="#EA7600"/>
<path d="M29.1949 30.8348C29.2947 28.9658 30.2152 27.3155 31.5907 26.15C33.0434 24.9481 34.873 24.2963 36.7584 24.309C38.7377 24.309 40.5594 25.0108 41.9174 26.15C43.2947 27.3173 44.2047 28.9658 44.3132 30.8348C44.4129 32.7475 43.6482 34.536 42.2902 35.8555C40.8015 37.2775 38.817 38.0628 36.7584 38.0448C34.6939 38.064 32.703 37.2788 31.2074 35.8555C29.8582 34.5343 29.0847 32.7475 29.1932 30.8348H29.1949Z" fill="#236192"/>
</g>
<defs>
<clipPath id="clip0">
<rect width="56" height="56" fill="white"/>
</clipPath>
</defs>
</svg>
