<svg width="49" height="56" viewBox="0 0 49 56" fill="none" xmlns="http://www.w3.org/2000/svg">
<path d="M24.47 55.8246L4.52896 50.2588L0.085083 0.147461H48.9147L44.4663 50.2511L24.47 55.8246Z" fill="#264DE4"/>
<path d="M40.6579 47.0606L44.4593 4.24463H24.5V51.5642L40.6579 47.0606Z" fill="#2965F1"/>
<path d="M10.2726 22.8303L10.8204 28.9763H24.5V22.8303H10.2726Z" fill="#EBEBEB"/>
<path d="M9.17163 10.3907L9.72728 16.5367H24.5V10.3907H9.17163Z" fill="#EBEBEB"/>
<path d="M24.5 38.792L24.4732 38.7991L17.6652 36.951L17.23 32.0493H11.0935L11.9499 41.6994L24.4718 45.1941L24.5 45.1864V38.792Z" fill="#EBEBEB"/>
<path d="M38.6884 22.8303L39.7918 10.3907H24.479V16.5367H33.0926L32.5364 22.8303H24.479V28.9762H32.0064L31.2967 36.9471L24.4788 38.7972V45.1912L37.0107 41.6994L37.1026 40.661L38.5393 24.4806L38.6884 22.8303Z" fill="white"/>
</svg>
