<svg width="44" height="56" viewBox="0 0 44 56" fill="none" xmlns="http://www.w3.org/2000/svg">
<g clip-path="url(#clip0)">
<path d="M19.7175 0H28.8695V41.9469C24.1817 42.8336 20.7306 43.1825 16.9967 43.1825C5.81868 43.1708 0 38.1771 0 28.5861C0 19.3453 6.17202 13.3479 15.7363 13.3479C17.2205 13.3479 18.3512 13.4647 19.7175 13.8146V0ZM20.0382 21.374C18.9663 21.0239 18.083 20.9072 16.9522 20.9072C12.3233 20.9072 9.64952 23.7308 9.64952 28.679C9.64952 33.4968 12.2056 36.1569 16.8934 36.1569C17.9063 36.1569 18.7308 36.0999 20.0382 35.9249V21.374Z" fill="#2BA977"/>
<path d="M43.8359 14.4741V35.4764C43.8359 42.7091 43.2941 46.1873 41.7039 49.1861C40.2197 52.069 38.2645 53.887 34.2245 55.8949L25.7321 51.893C29.7721 50.0154 31.7273 48.3564 32.976 45.8245C34.2832 43.2355 34.6955 40.2367 34.6955 32.3493V14.4743H43.8359V14.4741Z" fill="#2BA977"/>
<path d="M33.7732 0H42.9252V9.29926H33.7732V0Z" fill="#2BA977"/>
</g>
<defs>
<clipPath id="clip0">
<rect width="43.9755" height="56" fill="white"/>
</clipPath>
</defs>
</svg>
