<svg width="56" height="62" viewBox="0 0 56 62" fill="none" xmlns="http://www.w3.org/2000/svg">
<g clip-path="url(#clip0)">
<path d="M19.7576 13.9679C11.8249 12.523 5.55285 14.0353 3.05298 18.365C1.1877 21.5959 1.72079 25.8797 4.34623 30.4586C4.39845 30.553 4.46892 30.636 4.55355 30.7029C4.63817 30.7699 4.73526 30.8193 4.83916 30.8483C4.94306 30.8773 5.0517 30.8854 5.15875 30.8721C5.26581 30.8587 5.36914 30.8242 5.46273 30.7705C5.55632 30.7169 5.6383 30.6452 5.70391 30.5595C5.76952 30.4739 5.81743 30.376 5.84488 30.2717C5.87232 30.1674 5.87873 30.0586 5.86375 29.9518C5.84877 29.845 5.81268 29.7422 5.7576 29.6494C3.3927 25.5247 2.93245 21.8276 4.46195 19.1785C6.53854 15.5818 12.1331 14.233 19.466 15.5685C19.5717 15.5891 19.6804 15.5885 19.7859 15.5668C19.8914 15.545 19.9915 15.5026 20.0804 15.4419C20.1693 15.3812 20.2453 15.3034 20.304 15.2131C20.3626 15.1228 20.4028 15.0217 20.4221 14.9158C20.4414 14.8098 20.4394 14.7011 20.4164 14.5959C20.3934 14.4908 20.3497 14.3912 20.2879 14.303C20.2261 14.2148 20.1474 14.1398 20.0563 14.0823C19.9653 14.0247 19.8638 13.9859 19.7576 13.9679ZM31.4892 6.5995C30.8419 7.85141 29.5353 8.70716 28.0288 8.70716C25.8784 8.70716 24.1354 6.96394 24.1354 4.81384C24.1354 2.66353 25.8789 0.920532 28.0288 0.920532C30.1791 0.920532 31.9221 2.66353 31.9221 4.81384C31.9221 4.87006 31.9208 4.92606 31.9186 4.98163C38.3632 8.31472 42.8414 19.681 42.8414 32.8123C42.8414 38.2133 42.0863 43.3959 40.6804 47.8886C40.6502 47.9925 40.5996 48.0894 40.5314 48.1735C40.4633 48.2577 40.3791 48.3274 40.2837 48.3785C40.1884 48.4297 40.0837 48.4613 39.976 48.4716C39.8682 48.4818 39.7595 48.4704 39.6562 48.4381C39.5528 48.4057 39.457 48.3531 39.3743 48.2833C39.2916 48.2135 39.2237 48.1278 39.1745 48.0314C39.1253 47.935 39.0958 47.8297 39.0878 47.7218C39.0798 47.6138 39.0935 47.5053 39.1279 47.4027C40.4833 43.071 41.2146 38.0518 41.2146 32.8123C41.2146 20.4477 37.1045 9.80791 31.4894 6.5995H31.4892ZM3.60335 43.2091C3.70016 43.2018 3.79721 43.1982 3.89429 43.1981C6.0446 43.1981 7.7876 44.9416 7.7876 47.0917C7.7876 49.242 6.04438 50.9848 3.89429 50.9848C1.74398 50.9848 0.000976562 49.2417 0.000976562 47.0917C0.000976562 45.6278 0.80882 44.3529 2.00276 43.6879C1.41651 36.4112 9.06466 26.6571 20.6228 19.9842C25.4234 17.2124 30.4223 15.2449 35.1187 14.2387C35.3296 14.1935 35.5499 14.234 35.7311 14.3512C35.9122 14.4684 36.0394 14.6528 36.0846 14.8638C36.1297 15.0747 36.0893 15.295 35.9721 15.4762C35.8548 15.6573 35.6705 15.7845 35.4595 15.8297C30.9335 16.7994 26.0933 18.7043 21.4361 21.3931C10.5513 27.6774 3.3542 36.7349 3.60357 43.2091H3.60335ZM48.7227 49.016C48.3886 48.4298 48.2134 47.7664 48.2143 47.0917C48.2143 44.9413 49.9576 43.1983 52.1077 43.1983C54.258 43.1983 56.001 44.9413 56.001 47.0917C56.001 49.242 54.258 50.9848 52.1077 50.9848C51.2928 50.9861 50.4983 50.7306 49.837 50.2546C43.6263 53.9083 31.7628 52.0448 20.5989 45.5991C15.8464 42.8553 11.6792 39.5492 8.47163 36.0244C8.33041 35.8643 8.25783 35.655 8.26954 35.4418C8.28125 35.2286 8.37633 35.0285 8.53425 34.8848C8.69216 34.741 8.90026 34.6652 9.11364 34.6735C9.32701 34.6818 9.52855 34.7737 9.67476 34.9294C12.7666 38.327 16.8019 41.5284 21.4122 44.1902C31.9483 50.2732 43.0435 52.0835 48.7225 49.016H48.7227ZM48.4677 35.0348C48.327 35.1949 48.129 35.2934 47.9164 35.3091C47.7039 35.3248 47.4936 35.2565 47.3309 35.1187C47.1682 34.981 47.0661 34.7849 47.0465 34.5727C47.0269 34.3604 47.0913 34.1489 47.226 33.9837C52.0267 28.3124 53.6442 22.8087 51.5719 19.2198C50.0678 16.6145 46.7247 15.1686 42.0865 15.1082C41.979 15.1079 41.8726 15.0862 41.7735 15.0445C41.6744 15.0028 41.5846 14.9419 41.5092 14.8653C41.4337 14.7886 41.3743 14.6978 41.3342 14.5981C41.2941 14.4983 41.2742 14.3916 41.2756 14.2841C41.277 14.1766 41.2997 14.0704 41.3424 13.9717C41.385 13.8731 41.4468 13.7838 41.5242 13.7092C41.6016 13.6345 41.693 13.576 41.7932 13.5369C41.8933 13.4978 42.0002 13.4789 42.1077 13.4814C47.2648 13.5485 51.1454 15.227 52.9809 18.4063C55.4755 22.7271 53.6619 28.8987 48.4677 35.0348ZM15.8741 49.3715C15.8067 49.1697 15.8209 48.9495 15.9139 48.7581C16.0068 48.5667 16.1711 48.4193 16.3714 48.3476C16.5717 48.2758 16.7922 48.2854 16.9855 48.3743C17.1788 48.4632 17.3296 48.6243 17.4056 48.8231C19.916 55.8329 23.8786 59.9973 28.0288 59.9973C31.0136 59.9973 33.9153 57.8592 36.2778 53.9291C36.389 53.7442 36.569 53.611 36.7784 53.5588C36.9878 53.5067 37.2093 53.5398 37.3942 53.651C37.5791 53.7621 37.7123 53.9422 37.7645 54.1516C37.8167 54.3609 37.7835 54.5825 37.6723 54.7674C35.0434 59.1402 31.6725 61.6241 28.0288 61.6241C23.0327 61.6241 18.5897 56.9551 15.8741 49.3717V49.3715ZM54.3739 47.0914C54.3739 45.8398 53.3591 44.825 52.1077 44.825C50.8558 44.825 49.841 45.8397 49.841 47.0912C49.841 48.3431 50.856 49.3577 52.1074 49.3577C53.3591 49.3577 54.3737 48.3431 54.3737 47.0914H54.3739ZM3.89407 49.3577C5.14576 49.3577 6.16032 48.3431 6.16032 47.0914C6.16032 45.8398 5.14576 44.825 3.89407 44.825C2.64238 44.825 1.62782 45.8397 1.62782 47.0912C1.62782 48.3431 2.64238 49.3577 3.89407 49.3577ZM28.0288 7.07988C29.2804 7.07988 30.295 6.06531 30.295 4.81363C30.295 3.56194 29.2804 2.54738 28.0288 2.54738C26.7771 2.54738 25.7625 3.56194 25.7625 4.81363C25.7625 6.06531 26.7771 7.07988 28.0288 7.07988ZM28.6233 35.5655C27.1028 35.8941 25.6046 34.9276 25.2754 33.4069C24.9474 31.8861 25.9132 30.3881 27.434 30.0589C28.9545 29.7303 30.4527 30.6966 30.7819 32.2173C31.1105 33.7381 30.1441 35.2361 28.6233 35.5653V35.5655Z" fill="#47848F"/>
</g>
<defs>
<clipPath id="clip0">
<rect y="0.920532" width="56" height="60.8125" fill="white"/>
</clipPath>
</defs>
</svg>
