<svg width="36" height="54" viewBox="0 0 36 54" fill="none" xmlns="http://www.w3.org/2000/svg">
<path d="M9 54C13.968 54 18 49.968 18 45V36H9C4.032 36 0 40.032 0 45C0 49.968 4.032 54 9 54Z" fill="#0ACF83"/>
<path d="M0 27C0 22.032 4.032 18 9 18H18V36H9C4.032 36 0 31.968 0 27Z" fill="#A259FF"/>
<path d="M0 9C0 4.032 4.032 0 9 0H18V18H9C4.032 18 0 13.968 0 9Z" fill="#F24E1E"/>
<path d="M18 0H27C31.968 0 36 4.032 36 9C36 13.968 31.968 18 27 18H18V0Z" fill="#FF7262"/>
<path d="M36 27C36 31.968 31.968 36 27 36C22.032 36 18 31.968 18 27C18 22.032 22.032 18 27 18C31.968 18 36 22.032 36 27Z" fill="#1ABCFE"/>
</svg>
