<svg width="85" height="37" viewBox="0 0 85 37" fill="none" xmlns="http://www.w3.org/2000/svg">
<g clip-path="url(#clip0)">
<path d="M51.1075 13.1572C49.271 13.1572 47.9034 14.0732 47.9034 16.2778C47.9034 17.9388 48.8047 19.0922 51.0084 19.0922C52.8764 19.0922 54.1453 17.9738 54.1453 16.2088C54.1453 14.2088 53.01 13.1572 51.1075 13.1572ZM47.4358 28.7242C47.001 29.2658 46.5679 29.8418 46.5679 30.5208C46.5679 31.8765 48.2695 32.2845 50.6071 32.2845C52.543 32.2845 55.1805 32.1465 55.1805 30.3178C55.1805 29.2308 53.9116 29.1638 52.3084 29.0618L47.4358 28.7242ZM57.3166 13.2595C57.9164 14.0395 58.5517 15.1252 58.5517 16.6848C58.5517 20.4488 55.6474 22.6528 51.4422 22.6528C50.3728 22.6528 49.4049 22.5175 48.8047 22.3482L47.7025 24.1448L50.9736 24.3482C56.7493 24.7222 60.1529 24.8922 60.1529 29.4005C60.1529 33.3012 56.7824 35.5042 50.9736 35.5042C44.9319 35.5042 42.6284 33.9442 42.6284 31.2655C42.6284 29.7395 43.2962 28.9272 44.4646 27.8062C43.3628 27.3332 42.9959 26.4858 42.9959 25.5695C42.9959 24.8228 43.3628 24.1452 43.9645 23.5002C44.565 22.8568 45.2324 22.2118 46.0337 21.4658C44.3983 20.6518 43.1626 18.8885 43.1626 16.3785C43.1626 12.4795 45.7 9.80151 50.8063 9.80151C52.2421 9.80151 53.1104 9.93551 53.8782 10.1405H60.3882V13.0218L57.3166 13.2595Z" fill="#2F2707"/>
<path d="M66.2611 7.09706C64.3579 7.09706 63.2564 5.97706 63.2564 4.04339C63.2564 2.11239 64.3576 1.06006 66.2611 1.06006C68.197 1.06006 69.2988 2.11239 69.2988 4.04339C69.2988 5.97706 68.1973 7.09706 66.2611 7.09706ZM61.9541 27.4761V24.7984L63.6571 24.5617C64.1246 24.4934 64.1909 24.3921 64.1909 23.8824V13.9124C64.1909 13.5404 64.0912 13.3017 63.7562 13.2011L61.9541 12.5561L62.3209 9.81006H69.2316V23.8824C69.2316 24.4257 69.2637 24.4934 69.7661 24.5621L71.4684 24.7987V27.4761H61.9541Z" fill="#2F2707"/>
<path d="M84.6693 26.1616C83.2335 26.8733 81.1305 27.5176 79.227 27.5176C75.2548 27.5176 73.7533 25.8916 73.7533 22.0576V13.1739C73.7533 12.9706 73.7533 12.8349 73.4852 12.8349H71.1489V9.81593C74.0873 9.47593 75.2548 7.98393 75.6219 4.2876H78.7936V9.10426C78.7936 9.34093 78.7936 9.44326 79.061 9.44326H83.7673V12.8343H78.7936V20.9386C78.7936 22.9393 79.2615 23.7186 81.0632 23.7186C81.999 23.7186 82.966 23.4819 83.767 23.1766L84.6693 26.1613" fill="#2F2707"/>
<path d="M35.2082 17.2622L19.9452 1.75789C19.7362 1.54548 19.488 1.37698 19.2148 1.26202C18.9417 1.14706 18.6489 1.08789 18.3533 1.08789C18.0576 1.08789 17.7649 1.14706 17.4917 1.26202C17.2186 1.37698 16.9704 1.54548 16.7614 1.75789L13.592 4.97789L17.6125 9.06189C18.0851 8.89862 18.5933 8.87306 19.0794 8.98812C19.5656 9.10318 20.0103 9.35425 20.3632 9.71289C20.718 10.0738 20.9657 10.5288 21.0781 11.0259C21.1904 11.5231 21.1628 12.0423 20.9985 12.5242L24.8726 16.4606C25.8101 16.1326 26.8919 16.3449 27.6404 17.1066C27.8892 17.3592 28.0866 17.6591 28.2213 17.9893C28.356 18.3195 28.4253 18.6733 28.4253 19.0307C28.4253 19.3881 28.356 19.742 28.2213 20.0721C28.0866 20.4023 27.8892 20.7023 27.6404 20.9549C27.2026 21.4001 26.6264 21.6773 26.01 21.7395C25.3937 21.8017 24.7751 21.645 24.2596 21.296C23.7442 20.947 23.3637 20.4274 23.183 19.8255C23.0023 19.2236 23.0325 18.5767 23.2684 17.9949L19.6551 14.3242L19.6548 23.9842C19.9167 24.1158 20.156 24.2896 20.3632 24.4989C20.612 24.7516 20.8094 25.0516 20.9441 25.3818C21.0787 25.712 21.148 26.066 21.148 26.4234C21.148 26.7808 21.0787 27.1347 20.9441 27.4649C20.8094 27.7952 20.612 28.0952 20.3632 28.3479C19.3165 29.4112 17.6201 29.4112 16.575 28.3479C16.2628 28.0309 16.0325 27.6405 15.9046 27.2114C15.7767 26.7822 15.7552 26.3276 15.842 25.888C15.9287 25.4483 16.1211 25.0373 16.4019 24.6914C16.6828 24.3455 17.0434 24.0754 17.4518 23.9052V14.1552C17.1233 14.0189 16.8251 13.8169 16.575 13.5612C15.7823 12.7569 15.5916 11.5752 15.9978 10.5862L12.0347 6.55956L1.56953 17.1902C1.3604 17.4027 1.19452 17.6549 1.08134 17.9324C0.968164 18.21 0.909912 18.5075 0.909912 18.8079C0.909912 19.1083 0.968164 19.4058 1.08134 19.6834C1.19452 19.9609 1.3604 20.2131 1.56953 20.4256L16.8326 35.9302C17.2548 36.359 17.8274 36.5999 18.4245 36.5999C19.0215 36.5999 19.5941 36.359 20.0164 35.9302L35.2082 20.4979C35.6304 20.0687 35.8676 19.4868 35.8676 18.8801C35.8676 18.2733 35.6304 17.6914 35.2082 17.2622Z" fill="#DE4C36"/>
</g>
<defs>
<clipPath id="clip0">
<rect x="0.909668" y="0.752441" width="84" height="36" fill="white"/>
</clipPath>
</defs>
</svg>
