<svg width="26" height="57" viewBox="0 0 26 57" fill="none" xmlns="http://www.w3.org/2000/svg">
<g clip-path="url(#clip0)">
<path d="M19.6595 55.2041L20.2003 46.257L21.6936 43.7261C21.6936 43.7261 18.2949 45.1065 12.6048 45.1065C6.91462 45.1065 3.56738 43.7516 3.56738 43.7516L5.24095 46.5124L5.83299 55.2041C5.83299 56.1359 8.9281 56.8912 12.7463 56.8912C16.5643 56.8912 19.6595 56.1359 19.6595 55.2041Z" fill="#D34A47"/>
<path d="M17.9536 13.4225L19.0887 8.96772L25.3749 2.40048L23.7181 0.99939L17.0629 7.99514L15.7449 13.3174C14.7529 13.2844 13.7605 13.268 12.7679 13.2682C5.75876 13.2682 0.0766602 14.0613 0.0766602 15.0395C0.0766602 16.0177 5.75876 16.8107 12.7679 16.8107C19.777 16.8107 25.459 16.0177 25.459 15.0395C25.459 14.3192 22.3774 13.6992 17.9536 13.4225Z" fill="#D34A47"/>
<path d="M17.2933 15.9172C17.2933 15.9172 17.0474 15.9719 16.3242 15.9749C15.6009 15.9779 15.0872 15.9703 14.8827 15.7853C14.8276 15.7356 14.7976 15.637 14.7979 15.5702C14.7985 15.443 14.8893 15.3681 15.0051 15.3212L15.1147 15.4918C15.067 15.5081 15.0398 15.5274 15.0397 15.548C15.0393 15.6446 15.7793 15.7107 16.3454 15.7035C16.9115 15.6966 17.5955 15.6503 17.5961 15.5551C17.5961 15.5263 17.5444 15.4992 17.4544 15.4779L17.5634 15.3085C17.7101 15.3537 17.8382 15.4411 17.8379 15.5922C17.8365 15.8493 17.507 15.8884 17.2933 15.9172Z" fill="white"/>
<path d="M25.3626 2.41334C25.5206 2.23208 25.2808 1.76845 24.8268 1.37793C24.3727 0.987616 23.8765 0.818033 23.7181 0.999291C23.56 1.18055 23.7999 1.64418 24.254 2.0345C24.708 2.42492 25.2044 2.5947 25.3626 2.41334Z" fill="#D34A47"/>
<path d="M19.3571 33.3499C19.2081 31.9268 22.4924 29.8657 21.6495 29.7997C19.835 29.9027 18.932 31.9109 18.0191 34.0141C17.6845 34.785 16.5398 38.0719 15.789 37.6673C15.0385 37.2628 16.7622 34.5599 17.2453 32.9547C16.6878 33.3605 14.6434 34.9375 14.1166 33.4607C13.2695 34.1749 11.4595 34.5619 11.6637 32.6857C11.2131 33.4782 10.2017 34.5846 8.98774 34.1248C7.3935 33.5212 9.91152 28.4791 10.5376 28.7335C11.1639 28.9878 10.4113 30.1364 10.2142 30.5824C9.78068 31.564 9.27993 32.798 9.61446 33.0505C10.1876 33.4833 11.7471 31.4134 11.7818 31.3679C12.0735 30.9853 12.9045 28.4822 13.5743 28.7696C14.244 29.057 11.9037 32.3619 12.7787 33.0178C12.9552 33.1502 13.6773 32.9362 14.1166 32.4643C14.4008 32.1591 14.303 31.483 15.2504 29.2399C16.1978 26.9968 17.0422 24.2033 17.6919 24.4162C18.3417 24.6289 17.8061 26.0626 17.573 26.5971C16.4792 29.1056 14.5878 33.2499 15.4798 32.9362C16.3718 32.6225 16.8363 32.6041 17.7098 31.5893C18.5832 30.5745 18.5429 28.9029 19.1251 28.9384C19.7075 28.974 19.6097 29.51 19.4685 29.9181C20.0415 29.2671 22.1847 27.896 22.7021 29.2539C23.3149 30.8616 19.6358 33.1838 20.5531 33.0654C21.4475 32.9499 22.8965 32.0388 23.5151 31.2104L25.218 16.0106C25.218 16.0106 23.5045 17.4185 12.603 17.4185C1.70153 17.4185 0.165283 16.0399 0.165283 16.0399L1.61503 29.9137C2.38455 27.7422 4.21188 23.3501 7.09225 23.4975C8.40248 23.5646 10.1516 26.0694 8.65331 26.1543C8.01912 26.1902 7.95474 24.904 7.20376 24.7152C6.66185 24.5788 5.90738 25.0162 5.41977 25.4902C4.44736 26.435 2.35595 30.163 2.63229 32.0216C2.98436 34.3911 5.92561 31.1982 6.42328 30.2502C6.77376 29.5825 7.01053 27.6041 7.77706 27.8117C8.54369 28.0193 7.71019 30.061 7.15453 31.8661C6.53031 33.8931 6.20215 36.0313 5.41977 35.7853C4.6373 35.5396 5.91186 32.9228 5.86572 32.4643C5.13028 33.138 3.7754 34.8435 2.04204 33.9994L2.94241 42.6149C2.94241 42.6149 5.33537 44.4921 12.544 44.4921C19.7525 44.4921 22.2341 42.6442 22.2341 42.6442L23.3521 32.6654C22.4374 33.5497 19.5425 35.1201 19.3571 33.3499Z" fill="#D34A47"/>
</g>
<defs>
<clipPath id="clip0">
<rect y="0.911011" width="25.5111" height="56" fill="white"/>
</clipPath>
</defs>
</svg>
