<svg width="49" height="56" viewBox="0 0 49 56" fill="none" xmlns="http://www.w3.org/2000/svg">
<path d="M48.9147 0.972534L44.4663 50.336L24.47 55.8271L4.52896 50.3435L0.085083 0.972534H48.9147Z" fill="#E44D26"/>
<path d="M24.5 51.6298L40.6579 47.1927L44.4593 5.00928H24.5V51.6298Z" fill="#F16529"/>
<path d="M15.8523 17.1197H24.5V11.0646H9.17163L9.31787 12.689L10.8204 29.3755H24.5V23.3203H16.411L15.8523 17.1197Z" fill="#EBEBEB"/>
<path d="M17.23 32.4032H11.0935L11.9499 41.9107L24.4719 45.3538L24.5 45.3462V39.0463L24.4732 39.0533L17.6653 37.2324L17.23 32.4032Z" fill="#EBEBEB"/>
<path d="M24.4791 29.3755H32.0065L31.2968 37.2286L24.4789 39.0513V45.3509L37.0108 41.9106L37.1027 40.8876L38.5394 24.9463L38.6885 23.3203H24.4791V29.3755Z" fill="white"/>
<path d="M24.4789 17.1049V17.1197H39.2445L39.367 15.7588L39.6457 12.689L39.7918 11.0646H24.4789V17.1051V17.1049Z" fill="white"/>
</svg>
