<svg width="56" height="56" viewBox="0 0 56 56" fill="none" xmlns="http://www.w3.org/2000/svg">
<path d="M0 0H56V56H0V0Z" fill="#F7DF1E"/>
<path d="M14.7247 46.7974L19.01 44.2039C19.8369 45.6697 20.589 46.91 22.393 46.91C24.1222 46.91 25.2127 46.2337 25.2127 43.6025V25.7092H30.4751V43.6769C30.4751 49.1275 27.2801 51.6086 22.6185 51.6086C18.4087 51.6086 15.965 49.4283 14.7245 46.7969" fill="black"/>
<path d="M33.3332 46.2335L37.6181 43.7527C38.7462 45.5948 40.2123 46.948 42.8058 46.948C44.9865 46.948 46.3769 45.8577 46.3769 44.354C46.3769 42.5498 44.9484 41.9106 42.5426 40.8584L41.2273 40.294C37.4304 38.6781 34.9119 36.6481 34.9119 32.3628C34.9119 28.4157 37.9191 25.4083 42.6181 25.4083C45.9636 25.4083 48.3694 26.5738 50.0984 29.6186L46.0008 32.2502C45.0985 30.6338 44.1215 29.9949 42.6178 29.9949C41.0765 29.9949 40.0992 30.9722 40.0992 32.2502C40.0992 33.8289 41.0765 34.4683 43.3319 35.4457L44.6474 36.0094C49.1208 37.9267 51.6393 39.8813 51.6393 44.279C51.6393 49.0158 47.9179 51.6093 42.9184 51.6093C38.0318 51.6093 34.8741 49.2788 33.333 46.2338" fill="black"/>
</svg>
