<svg width="56" height="57" viewBox="0 0 56 57" fill="none" xmlns="http://www.w3.org/2000/svg">
<g clip-path="url(#clip0)">
<path d="M55.9271 8.19486C55.9271 4.12458 52.6275 0.824951 48.5572 0.824951C44.8406 0.824951 41.7683 3.57639 41.2621 7.15317L41.1875 7.11379C35.1603 4.39539 30.0833 9.21029 30.0833 9.21029L16.6541 22.7054L21.9603 27.8154L32.7694 17.196C37.8168 12.1483 40.5652 15.5648 40.5652 15.5648C44.3649 18.7747 40.696 22.5744 40.696 22.5744L46.1335 27.8154C50.5737 23.0198 50.8311 18.8344 49.4814 15.505C53.1153 15.05 55.9271 11.9519 55.9271 8.19486Z" fill="#F9AE41"/>
<path d="M49.5499 42.0895C49.5751 42.0424 49.5893 42.0151 49.5893 42.0151C52.3079 35.9876 47.4928 30.9107 47.4928 30.9107L33.9975 17.481L28.8877 22.7876L39.5071 33.5965C44.5546 38.6441 41.1381 41.3927 41.1381 41.3927C37.9284 45.1924 34.1287 41.5235 34.1287 41.5235L28.8877 46.9608C33.6831 51.401 37.8687 51.6584 41.1978 50.3088C41.6528 53.9426 44.7512 56.7547 48.5083 56.7547C52.5785 56.7547 55.8779 53.455 55.8779 49.3848C55.8779 45.6682 53.1267 42.5959 49.5499 42.0895Z" fill="#EE4035"/>
<path d="M34.1123 29.5186L23.3032 40.1378C18.2556 45.1856 15.5072 41.7694 15.5072 41.7694C11.7075 38.5593 15.3761 34.7598 15.3761 34.7598L9.93911 29.5186C5.49893 34.314 5.24124 38.4993 6.59071 41.8287C2.95683 42.2839 0.14502 45.3819 0.14502 49.1391C0.14502 53.2094 3.44464 56.5088 7.51514 56.5088C11.2317 56.509 14.3041 53.7578 14.8102 50.181C14.8575 50.2062 14.8848 50.2202 14.8848 50.2202C20.9123 52.9392 25.989 48.1237 25.989 48.1237L39.4185 34.6283L34.1123 29.5186Z" fill="#4F91CD"/>
<path d="M16.5654 23.7375C11.5177 18.6899 14.9337 15.9413 14.9337 15.9413C18.1441 12.1416 21.9436 15.8105 21.9436 15.8105L27.1846 10.3734C22.3891 5.93325 18.2038 5.67578 14.8744 7.02525C14.4194 3.39116 11.3215 0.579346 7.5638 0.579346C3.49418 0.579346 0.194773 3.87897 0.194336 7.94925C0.194336 11.666 2.94555 14.7384 6.52255 15.2446C6.4974 15.2918 6.4834 15.3194 6.4834 15.3194C3.76434 21.3464 8.57968 26.4231 8.57968 26.4231L22.0752 39.8528L27.185 34.5466L16.5656 23.7375" fill="#7AC043"/>
</g>
<defs>
<clipPath id="clip0">
<rect y="0.416016" width="56" height="56.4375" fill="white"/>
</clipPath>
</defs>
</svg>
