<svg width="109" height="26" viewBox="0 0 109 26" fill="none" xmlns="http://www.w3.org/2000/svg">
<g clip-path="url(#clip0)">
<path fill-rule="evenodd" clip-rule="evenodd" d="M104.209 2.03125L108.728 2.05668C108.728 2.05668 100.327 13.6869 99.6414 14.6347C99.4187 14.9416 99.0803 15.2726 98.9086 15.683C98.4747 16.7144 98.0292 18.9772 98.0292 18.9772L93.8951 18.9983C93.8951 18.9983 94.5384 16.6397 94.5118 15.3834C94.4886 14.286 93.9402 13.1899 93.6327 12.0892C93.3217 10.975 92.8997 8.79483 92.8997 8.79483H97.15L97.7362 11.1907L104.209 2.03125Z" fill="#1A1918"/>
<path fill-rule="evenodd" clip-rule="evenodd" d="M95.654 4.48422C96.4878 4.9978 96.9996 7.83099 96.9996 7.83099C96.9996 7.83099 92.6365 7.89672 90.2622 7.89672H88.2104L85.7188 18.9773H81.9084C81.9084 18.9773 84.2798 6.93552 84.8396 4.75233C85.021 4.04543 86.0825 4.16677 87.8748 4.16677H90.737C92.5853 4.16677 94.7455 3.9256 95.654 4.48422Z" fill="#1A1918"/>
<path fill-rule="evenodd" clip-rule="evenodd" d="M77.9143 9.88094C77.9143 9.88094 78.0331 9.16973 77.5114 8.34603C77.0657 7.64387 76.6542 7.48051 75.4816 7.44301C72.1709 7.33676 72.2353 9.84344 72.2353 9.84344L77.9143 9.88094ZM81.5049 7.01025C81.9901 8.7984 81.0653 12.9999 81.0653 12.9999C81.0653 12.9999 76.2361 12.9176 73.591 12.9999C72.7685 13.0256 71.7841 12.9085 71.5392 13.2995C71.1947 13.8473 71.6651 14.6906 72.0638 15.0469C72.5226 15.457 73.4163 15.5038 73.7376 15.5454C75.8845 15.824 80.3779 15.6174 80.3779 15.6174L79.5995 19.1389C79.5995 19.1389 73.2497 19.4643 70.0736 18.6898C69.4465 18.5372 68.8586 18.2288 68.4614 17.7915C68.353 17.6719 68.2589 17.5087 68.1564 17.3678C68.0745 17.2553 67.8357 16.8857 67.7286 16.5934C67.0032 14.6184 67.8136 10.8348 68.608 8.80723C68.7002 8.57232 68.816 8.27426 68.9379 8.02103C69.0902 7.7053 69.2191 7.34883 69.3408 7.16004C69.4226 7.02986 69.5241 6.94603 69.6091 6.82318C69.7072 6.67792 69.8213 6.53719 69.927 6.41155C70.2202 6.06413 70.5528 5.81844 70.953 5.51327C72.2762 4.50077 74.671 3.71478 77.5479 4.01564C78.6311 4.12943 80.2669 4.52469 81.0653 5.66284C81.2792 5.96672 81.3849 6.57017 81.5049 7.01047V7.01025Z" fill="#1A1918"/>
<path fill-rule="evenodd" clip-rule="evenodd" d="M64.0288 4.15306L67.7236 4.13086C67.7236 4.13086 65.6644 14.1108 64.615 18.9774H60.3646C57.3942 18.9774 54.7488 19.3533 53.6232 17.1804C52.5314 15.0707 53.5735 11.6013 54.0628 9.24422C54.4088 7.57612 55.1373 4.16664 55.1373 4.16664L58.9654 4.13086C58.9654 4.13086 57.8838 9.43905 57.4336 12.0895C57.2725 13.0388 56.94 13.9328 57.2872 14.6347C57.6169 15.3028 58.0787 15.3507 59.4854 15.3837C59.9311 15.3944 61.3908 15.3837 61.3908 15.3837L64.0288 4.15306Z" fill="#1A1918"/>
<path fill-rule="evenodd" clip-rule="evenodd" d="M46.7346 11.3405C47.1215 9.93615 47.6857 8.4133 47.614 7.14778C47.5364 5.79433 46.4256 4.56201 45.7088 4.30296C43.5501 3.52429 41.5291 4.61287 40.7258 5.5008C39.6868 6.6508 39.3349 7.99412 38.967 9.84347C38.6932 11.2163 38.4688 12.6657 38.967 13.7364C39.8492 15.6292 42.6002 15.2159 45.5622 15.234C46.0018 14.0301 46.3652 12.678 46.7346 11.3405ZM51.8642 5.80037C52.2861 8.93571 50.6669 12.3965 49.5515 15.406C50.6888 15.5109 51.6855 15.3898 51.7572 15.4764C51.8319 15.5887 50.9949 19.0687 50.7032 19.0777C49.8006 19.1017 46.8095 19.1271 45.5622 19.1271C41.4922 19.1271 37.6848 19.398 35.7431 17.3303C34.9546 16.4902 34.4093 15.0495 34.2773 14.0359C34.0575 12.3439 34.333 10.481 34.7171 8.94498C35.0645 7.55813 35.5098 6.24951 36.1827 5.05145C37.8929 2.00145 40.868 -0.262562 45.8552 0.260067C46.8226 0.361791 48.2118 0.79455 49.0796 1.30813C49.1395 1.34412 49.3494 1.51481 49.3975 1.54477C50.5701 2.30705 51.6385 4.12623 51.8642 5.80037Z" fill="#1A1918"/>
<path fill-rule="evenodd" clip-rule="evenodd" d="M33.8571 4.17096C33.6109 5.31644 33.3647 6.61493 33.1053 7.74683H29.0017C29.3196 6.49208 29.563 5.24467 29.8811 4.15308C31.1942 4.15308 32.4151 4.17096 33.8573 4.17096" fill="#1A1918"/>
<path fill-rule="evenodd" clip-rule="evenodd" d="M28.8547 8.79517H32.8119C32.2945 11.721 31.27 16.4406 30.4669 19.726C29.9643 21.782 29.6287 23.2822 28.2685 24.3678C28.1468 24.4652 28.0766 24.4189 27.9753 24.5176C27.7247 24.7618 26.5654 25.045 25.9238 25.1165C24.8802 25.232 23.7005 25.1316 22.418 25.1047C22.7536 23.8514 23.1333 22.3465 23.4324 21.2232C26.5585 21.6098 26.6376 18.5909 27.2427 15.6831C27.5929 14.0029 28.6541 9.46887 28.8547 8.79517Z" fill="#1A1918"/>
<path fill-rule="evenodd" clip-rule="evenodd" d="M19.6217 16.4319L19.5369 16.6564C18.0919 19.5314 15.5314 21.2952 11.8792 21.373C10.1719 21.409 8.54513 20.9614 7.48243 20.4748C5.18911 19.422 3.26009 17.4696 2.20667 15.3836C0.695513 12.3933 0.422982 8.23361 3.56511 5.12671C3.61362 5.12671 3.18394 5.80042 3.23246 5.80042L3.14597 6.08792C0.881771 13.3306 7.85768 19.5375 14.6389 18.8276C16.2686 18.6569 18.3468 17.745 19.6217 16.4319Z" fill="#21609B"/>
<path fill-rule="evenodd" clip-rule="evenodd" d="M15.5182 13.4371C17.2242 13.4489 19.0062 12.6343 20.0615 11.4905C19.1383 13.8849 16.4651 15.4239 12.8804 14.9345C9.87875 14.5241 7.01949 11.4381 6.72502 8.34589C6.50965 6.09546 7.27725 4.75236 8.54225 3.12305C8.10265 3.9752 7.93833 4.63231 7.89741 5.0515C7.4169 9.9196 11.7036 13.4114 15.5182 13.4371Z" fill="#21609B"/>
<path fill-rule="evenodd" clip-rule="evenodd" d="M19.89 7.3904C19.6249 8.01195 18.0979 9.18566 17.4235 9.33242C14.7533 9.91367 13.0432 8.61992 12.1474 7.14773C12.0143 6.9279 11.7681 6.32747 11.724 6.17466C11.3766 4.96777 11.5363 3.14234 12.5726 2.19751C12.2604 3.096 12.2149 4.13954 12.3792 4.81798C12.4787 5.22811 12.7821 5.94428 13.0856 6.39471C13.6378 7.21518 13.9882 7.41454 14.6976 7.85031C15.0172 8.04643 15.3599 8.20376 15.508 8.24686C16.1807 8.44923 17.6009 8.98221 19.8902 7.3904" fill="#21609B"/>
</g>
<defs>
<clipPath id="clip0">
<rect x="0.909668" y="0.167969" width="108" height="25" fill="white"/>
</clipPath>
</defs>
</svg>
