<svg width="56" height="57" viewBox="0 0 56 57" fill="none" xmlns="http://www.w3.org/2000/svg">
<g clip-path="url(#clip0)">
<path d="M55.9685 12.8725C55.9893 12.9483 56 13.0265 56 13.1051V25.3186C56 25.6377 55.8272 25.9324 55.5465 26.0911L45.1609 31.9934V43.6914C45.161 43.8479 45.1193 44.0017 45.0402 44.1373C44.961 44.273 44.8471 44.3857 44.7099 44.4641L23.03 56.7824C22.9803 56.81 22.9263 56.8277 22.8721 56.8469C22.8517 56.8534 22.8327 56.8657 22.8112 56.8713C22.6597 56.9107 22.5004 56.9107 22.3488 56.8713C22.3239 56.8649 22.3013 56.8513 22.2777 56.8424C22.2281 56.8245 22.1762 56.8089 22.129 56.7824L0.453469 44.4639C0.315731 44.3859 0.201281 44.2734 0.121665 44.1377C0.0420482 44.0021 8.21106e-05 43.8481 0 43.6914L0 7.05075C0 6.97043 0.011375 6.89249 0.0315 6.81692C0.0382812 6.79123 0.0540313 6.76791 0.0632188 6.74222C0.0800625 6.69558 0.0960312 6.64765 0.12075 6.60425C0.137594 6.57532 0.162312 6.552 0.182656 6.52523C0.208687 6.4896 0.232313 6.4529 0.262719 6.42159C0.28875 6.39611 0.322656 6.37711 0.351969 6.35487C0.384781 6.3281 0.413875 6.29917 0.451063 6.27801H0.452156L11.2903 0.118988C11.4276 0.0410302 11.5832 0 11.7415 0C11.8999 0 12.0554 0.0410302 12.1927 0.118988L23.0309 6.27801H23.0331C23.0692 6.30047 23.0998 6.3281 23.1324 6.3538C23.1617 6.37603 23.1945 6.39611 23.2203 6.42073C23.252 6.4529 23.2746 6.48982 23.3015 6.52523C23.3207 6.552 23.3468 6.57532 23.3625 6.60425C23.3883 6.64873 23.403 6.69558 23.4211 6.74243C23.4301 6.76791 23.4458 6.79123 23.4526 6.818C23.4734 6.89378 23.4841 6.97216 23.4843 7.05075V29.9358L32.5157 24.803V13.104C32.5157 13.0262 32.527 12.947 32.5474 12.8725C32.5552 12.8457 32.5699 12.8224 32.5789 12.797C32.597 12.7501 32.6128 12.702 32.6375 12.6588C32.6543 12.6298 32.6791 12.6065 32.6985 12.5798C32.7254 12.5441 32.748 12.5074 32.7795 12.4761C32.8057 12.4506 32.8383 12.4316 32.8676 12.4094C32.9015 12.3826 32.9308 12.3537 32.9669 12.3325H32.968L43.8073 6.17351C43.9445 6.09545 44.1001 6.05436 44.2585 6.05436C44.4169 6.05436 44.5724 6.09545 44.7097 6.17351L55.5478 12.3325C55.5861 12.3548 55.6154 12.3826 55.6493 12.4081C55.6773 12.4306 55.7102 12.4506 55.7362 12.475C55.7677 12.5074 55.7902 12.5441 55.8171 12.5798C55.8377 12.6065 55.8624 12.6298 55.8784 12.6588C55.9042 12.702 55.9188 12.7501 55.9368 12.797C55.9471 12.8224 55.9617 12.8457 55.9685 12.8725ZM54.1933 24.8032V14.6469L50.4004 16.8019L45.1607 19.7797V29.936L54.1944 24.8032H54.1933ZM43.3552 43.176V33.0125L38.201 35.918L23.4832 44.2089V54.4676L43.3552 43.1756V43.176ZM1.80666 8.59234V43.176L21.6764 54.4668V44.21L11.2962 38.4115L11.293 38.4094L11.2886 38.4072C11.2536 38.3871 11.2241 38.3582 11.1915 38.3338C11.163 38.3114 11.1304 38.2937 11.1057 38.269L11.1035 38.2658C11.0742 38.238 11.0539 38.2034 11.0292 38.1723C11.0064 38.1421 10.9795 38.1166 10.9613 38.0855L10.9602 38.0821C10.9399 38.0488 10.9274 38.0087 10.9128 37.9709C10.8981 37.9374 10.8791 37.9061 10.8699 37.8707V37.8696C10.8588 37.8273 10.8566 37.7826 10.852 37.7392C10.8476 37.706 10.8384 37.6725 10.8384 37.639V13.7254L5.59956 10.7462L1.80666 8.59364V8.59234ZM11.7427 1.9201L2.71228 7.05075L11.7405 12.1812L20.7697 7.04945L11.7405 1.9201H11.7427ZM16.4388 33.939L21.6775 30.9625V8.59234L17.885 10.7475L12.6448 13.7251V36.0951L16.4388 33.939ZM44.2584 7.97463L35.2293 13.1051L44.2584 18.2357L53.2864 13.104L44.2586 7.97463H44.2584ZM43.3549 19.7797L38.1152 16.8019L34.3225 14.6469V24.8032L39.5612 27.78L43.3552 29.936V19.7797H43.3549ZM22.5787 42.6673L35.8225 35.2046L42.4427 31.4755L33.4202 26.3483L23.032 32.2512L13.564 37.6313L22.5787 42.6673Z" fill="#FF2D20"/>
</g>
<defs>
<clipPath id="clip0">
<rect width="56" height="57" fill="white"/>
</clipPath>
</defs>
</svg>
