<svg width="56" height="64" viewBox="0 0 56 64" fill="none" xmlns="http://www.w3.org/2000/svg">
<g clip-path="url(#clip0)">
<path d="M28 63.1019C27.1305 63.1019 26.3189 62.87 25.5653 62.4642L17.855 57.8845C16.6957 57.2468 17.2753 57.0149 17.6232 56.899C19.1883 56.3773 19.4782 56.2613 21.1013 55.3336C21.2754 55.2177 21.5073 55.2757 21.681 55.3916L27.5942 58.9279C27.8261 59.0438 28.1159 59.0438 28.2898 58.9279L51.4205 45.5367C51.6523 45.4208 51.7683 45.1889 51.7683 44.899V18.1741C51.7683 17.8843 51.6523 17.6524 51.4205 17.5365L28.2898 4.203C28.058 4.08707 27.7681 4.08707 27.5942 4.203L4.46359 17.5367C4.23172 17.6526 4.11578 17.9425 4.11578 18.1743V44.899C4.11578 45.1309 4.23172 45.4208 4.46359 45.5367L10.7826 49.1887C14.203 50.9278 16.3476 48.8989 16.3476 46.87V20.4929C16.3476 20.1451 16.6377 19.7973 17.0435 19.7973H20.0001C20.3479 19.7973 20.6957 20.0871 20.6957 20.4929V46.8698C20.6957 51.4495 18.2028 54.1161 13.855 54.1161C12.5217 54.1161 11.4783 54.1161 8.52184 52.6668L2.43469 49.1887C0.9275 48.319 0 46.6958 0 44.9568V18.2323C0 16.4933 0.9275 14.8701 2.43469 14.0004L25.5653 0.60916C27.0145 -0.202402 28.9855 -0.202402 30.4347 0.60916L53.5653 14.0004C55.0725 14.8699 56 16.493 56 18.2323V44.957C56 46.6961 55.0725 48.3192 53.5653 49.1887L30.4347 62.5804C29.6811 62.9282 28.8116 63.1021 28 63.1021V63.1019ZM35.1304 44.7249C24.9854 44.7249 22.8985 40.0874 22.8985 36.1453C22.8985 35.7975 23.1884 35.4497 23.5942 35.4497H26.6085C26.9563 35.4497 27.2464 35.6816 27.2464 36.0294C27.7102 39.1017 29.0434 40.6091 35.1883 40.6091C40.0579 40.6091 42.145 39.5077 42.145 36.8991C42.145 35.3917 41.5653 34.2903 33.971 33.5365C27.6522 32.8988 23.7101 31.5076 23.7101 26.4643C23.7101 21.7684 27.652 18.9859 34.2608 18.9859C41.6811 18.9859 45.3333 21.5365 45.7971 27.1018C45.7971 27.2757 45.7391 27.4496 45.6232 27.6235C45.5072 27.7394 45.3333 27.8553 45.1594 27.8553H42.145C41.855 27.8553 41.5653 27.6235 41.5072 27.3336C40.8115 24.1453 39.0145 23.1019 34.2608 23.1019C28.9277 23.1019 28.2898 24.9569 28.2898 26.3482C28.2898 28.0295 29.0434 28.551 36.2318 29.4785C43.3624 30.406 46.7246 31.7395 46.7246 36.725C46.6666 41.8265 42.4928 44.7249 35.1304 44.7249Z" fill="#539E43"/>
</g>
<defs>
<clipPath id="clip0">
<rect width="56" height="63.2188" fill="white"/>
</clipPath>
</defs>
</svg>
