<svg width="54" height="48" viewBox="0 0 54 48" fill="none" xmlns="http://www.w3.org/2000/svg">
<path d="M4 48V0H48V48H4Z" fill="#ED1F5E"/>
<path d="M11.9655 17.0035V18.6873H12.043C12.1974 18.453 12.3994 18.2141 12.6489 17.9711C12.8979 17.7282 13.2034 17.5105 13.5645 17.3174C13.9254 17.1254 14.3337 16.9659 14.7894 16.84C15.2446 16.7145 15.7565 16.6513 16.3237 16.6513C17.2007 16.6513 18.0085 16.8149 18.7479 17.1414C19.487 17.4688 20.1234 17.917 20.6564 18.4865C21.1891 19.0564 21.6017 19.7267 21.8941 20.4972C22.1864 21.2682 22.3326 22.0977 22.3326 22.9857C22.3326 23.8737 22.1907 24.7073 21.9069 25.4865C21.6235 26.2657 21.2189 26.9442 20.6949 27.5223C20.1702 28.1004 19.5345 28.5619 18.7865 28.9046C18.0385 29.248 17.1916 29.4198 16.2464 29.4198C15.3694 29.4198 14.5657 29.2438 13.8352 28.8922C13.104 28.5402 12.5413 28.0629 12.146 27.4591H12.0946V35.1002H9V17.0035H11.9655ZM19.1863 22.9854C19.1863 22.5162 19.1131 22.0511 18.9671 21.5903C18.8207 21.1297 18.6016 20.7149 18.3094 20.3461C18.0169 19.9781 17.6476 19.6804 17.2004 19.4539C16.7533 19.2278 16.2291 19.1147 15.6275 19.1147C15.0601 19.1147 14.5527 19.232 14.106 19.4667C13.668 19.6944 13.2785 20.0014 12.9584 20.3713C12.6389 20.7424 12.3939 21.1689 12.2363 21.6284C12.0726 22.0977 11.9914 22.5671 11.9914 23.036C11.9914 23.5052 12.0726 23.9703 12.2363 24.4307C12.3959 24.8856 12.6407 25.3076 12.9584 25.6753C13.2764 26.044 13.6665 26.3471 14.106 26.5671C14.5527 26.7937 15.0601 26.9063 15.6275 26.9063C16.2291 26.9063 16.7533 26.7894 17.2004 26.5547C17.6473 26.32 18.0169 26.0185 18.3094 25.6497C18.6016 25.2812 18.8207 24.8623 18.9671 24.393C19.1111 23.937 19.185 23.4626 19.1863 22.9854ZM43.3998 13.2441L45.2429 12.7018L45.6049 13.7873L43.7693 14.3974L44.9087 15.9721L43.9482 16.6513L42.7487 15.1043L41.5806 16.6104L40.6477 15.918L41.7871 14.3974L39.9375 13.7468L40.2997 12.6605L42.1571 13.2439V11.3713C42.1571 11.3713 42.9918 11.1166 43.4 11.3713C44.0342 11.7671 43.3998 13.2441 43.3998 13.2441ZM35.2572 20.8362C34.939 20.1412 34.4966 19.5545 33.9292 19.0768C33.362 18.5993 32.6956 18.2347 31.9308 17.9835C31.1655 17.7324 30.3358 17.6065 29.4422 17.6065C29.1154 17.6065 28.7502 17.6238 28.3463 17.6566C27.9421 17.6907 27.5941 17.749 27.3019 17.833L27.4823 13.9871H34.9351V11.2728H24.5425L24.233 20.9993C24.5075 20.8657 24.8216 20.74 25.1741 20.6223C25.5308 20.504 25.892 20.3994 26.2571 20.3086C26.6308 20.2158 27.0097 20.1444 27.392 20.0947C27.7552 20.0462 28.1213 20.0211 28.488 20.0195C28.9863 20.0195 29.4764 20.0739 29.9578 20.1827C30.4391 20.2918 30.8732 20.4846 31.2601 20.7608C31.647 21.037 31.9604 21.4019 32.2014 21.8541C32.4418 22.3063 32.5624 22.8762 32.5624 23.5633C32.5624 24.0995 32.4721 24.5814 32.2915 25.0086C32.1111 25.4353 31.866 25.792 31.5569 26.0764C31.2447 26.3632 30.8761 26.5855 30.4734 26.7299C30.0609 26.8812 29.6226 26.9564 29.1582 26.9564C28.3333 26.9564 27.6194 26.7425 27.0179 26.3153C26.4159 25.8882 25.9865 25.3227 25.7283 24.6187L25.694 24.6311L23.4545 26.6764C23.9075 27.3964 24.4913 27.9987 25.2127 28.477C26.2612 29.172 27.5505 29.5202 29.0811 29.5202C29.9922 29.5202 30.8516 29.3774 31.6597 29.093C32.4675 28.8084 33.1726 28.3977 33.7743 27.861C34.3759 27.3252 34.853 26.6673 35.2058 25.8882C35.5578 25.109 35.7341 24.2254 35.7341 23.2364C35.7343 22.3315 35.5753 21.532 35.2572 20.8362Z" fill="white"/>
</svg>
