<svg width="56" height="56" viewBox="0 0 56 56" fill="none" xmlns="http://www.w3.org/2000/svg">
<g clip-path="url(#clip0)">
<path d="M0 10.7625L9.5375 0L29.05 4.2L31.675 12.1625L29.75 25.9875L21.9927 22.0176L22.4 33.075V42.7L5.3375 42.875L0 10.7625Z" fill="url(#paint0_linear)"/>
<path d="M17.6752 32.8123L18.7252 19.5998L34.5627 3.32483L48.7377 5.94983L56.0002 24.0623L48.3877 31.5873L36.0502 29.5748L28.2627 37.6248L17.6752 32.8123Z" fill="url(#paint1_linear)"/>
<path d="M34.5625 3.32483L11.8125 23.5373L16.1875 49.4373L35.0875 55.9998L56 43.4873L34.5625 3.32483Z" fill="url(#paint2_linear)"/>
<path d="M10.5 10.5H45.5V45.5H10.5V10.5Z" fill="black"/>
<path d="M13.8248 38.9378H26.9498V41.1253H13.8248V38.9378ZM13.6498 15.0503H19.5998C23.0998 15.0503 25.1998 17.0628 25.1998 20.0378C25.1998 23.3628 22.5748 25.1128 19.3373 25.1128H16.8873V29.4878H13.6498V15.0503ZM19.4248 22.4878C20.9517 22.4878 21.9623 21.4378 21.9623 20.2128C21.9623 18.8128 20.9998 18.0253 19.3373 18.0253H16.8873V22.4878H19.4248ZM25.9873 27.4753L27.9123 25.2003C29.2248 26.2503 30.6248 26.9503 32.2873 26.9503C33.5998 26.9503 34.3873 26.4253 34.3873 25.5503C34.3873 24.7628 33.8623 24.3253 31.4123 23.7128C28.4373 22.9253 26.5998 22.1378 26.5998 19.2503V19.1628C26.5998 16.5378 28.6998 14.7878 31.6748 14.7878C33.6372 14.7794 35.5464 15.426 37.0998 16.6253L35.4373 19.0753C34.1248 18.2003 32.8998 17.6753 31.6748 17.6753C30.4498 17.6753 29.8373 18.2003 29.8373 18.9878C29.8373 19.9503 30.4498 20.3003 32.9873 20.9128C35.9623 21.7003 37.6248 22.7503 37.6248 25.2878C37.6248 28.1753 35.4373 29.8378 32.2873 29.8378C29.9651 29.8692 27.7162 29.0258 25.9873 27.4753Z" fill="white"/>
</g>
<defs>
<linearGradient id="paint0_linear" x1="0.428879" y1="61.7936" x2="35.4026" y2="20.1979" gradientUnits="userSpaceOnUse">
<stop offset="0.02" stop-color="#765AF8"/>
<stop offset="0.38" stop-color="#B345F1"/>
<stop offset="0.76" stop-color="#FA3293"/>
<stop offset="0.94" stop-color="#FF318C"/>
</linearGradient>
<linearGradient id="paint1_linear" x1="40.679" y1="37.1172" x2="29.784" y2="4.8307" gradientUnits="userSpaceOnUse">
<stop offset="0.18" stop-color="#765AF8"/>
<stop offset="0.24" stop-color="#8655F6"/>
<stop offset="0.34" stop-color="#9F4CF3"/>
<stop offset="0.44" stop-color="#AE47F2"/>
<stop offset="0.52" stop-color="#B345F1"/>
</linearGradient>
<linearGradient id="paint2_linear" x1="50.5968" y1="45.8846" x2="16.7719" y2="27.4781" gradientUnits="userSpaceOnUse">
<stop offset="0.02" stop-color="#765AF8"/>
<stop offset="0.38" stop-color="#B345F1"/>
</linearGradient>
<clipPath id="clip0">
<rect width="56" height="56" fill="white"/>
</clipPath>
</defs>
</svg>
