<svg width="56" height="56" viewBox="0 0 56 56" fill="none" xmlns="http://www.w3.org/2000/svg">
<g clip-path="url(#clip0)">
<path d="M27.7629 0.015625C13.5809 0.015625 14.4664 6.16578 14.4664 6.16578L14.4821 12.5375H28.0158V14.4505H9.1068C9.1068 14.4505 0.0317383 13.4213 0.0317383 27.7308C0.0317383 42.0408 7.95268 41.5333 7.95268 41.5333H12.6799V34.8929C12.6799 34.8929 12.425 26.972 20.4744 26.972H33.8973C33.8973 26.972 41.4387 27.0938 41.4387 19.6834V7.43081C41.4387 7.43081 42.5841 0.015625 27.7629 0.015625ZM20.3005 4.3005C20.6203 4.30021 20.937 4.36299 21.2325 4.48524C21.528 4.6075 21.7965 4.78682 22.0227 5.01296C22.2488 5.2391 22.4281 5.50761 22.5504 5.80313C22.6727 6.09865 22.7354 6.41538 22.7351 6.73519C22.7354 7.055 22.6727 7.37172 22.5504 7.66724C22.4281 7.96276 22.2488 8.23127 22.0227 8.45741C21.7965 8.68355 21.528 8.86288 21.2325 8.98513C20.937 9.10738 20.6203 9.17016 20.3005 9.16988C19.9806 9.17016 19.6639 9.10738 19.3684 8.98513C19.0729 8.86288 18.8044 8.68355 18.5782 8.45741C18.3521 8.23127 18.1728 7.96276 18.0505 7.66724C17.9283 7.37172 17.8655 7.055 17.8658 6.73519C17.8655 6.41538 17.9283 6.09865 18.0505 5.80313C18.1728 5.50761 18.3521 5.2391 18.5782 5.01296C18.8044 4.78682 19.0729 4.6075 19.3684 4.48524C19.6639 4.36299 19.9806 4.30021 20.3005 4.3005Z" fill="url(#paint0_linear)"/>
<path d="M28.1655 55.5902C42.3475 55.5902 41.462 49.44 41.462 49.44L41.4463 43.0685H27.9124V41.1555H46.8214C46.8214 41.1555 55.8965 42.1848 55.8965 27.8748C55.8965 13.565 47.9755 14.0725 47.9755 14.0725H43.2484V20.7127C43.2484 20.7127 43.5032 28.6336 35.4539 28.6336H22.0309C22.0309 28.6336 14.4895 28.5118 14.4895 35.9224V48.1752C14.4895 48.1752 13.3444 55.5902 28.1653 55.5902H28.1655ZM35.628 51.3058C35.3082 51.306 34.9914 51.2433 34.6959 51.121C34.4004 50.9988 34.1319 50.8194 33.9058 50.5933C33.6796 50.3672 33.5003 50.0986 33.378 49.8031C33.2558 49.5076 33.193 49.1909 33.1933 48.8711C33.193 48.5512 33.2557 48.2345 33.378 47.9389C33.5002 47.6434 33.6795 47.3749 33.9057 47.1487C34.1318 46.9225 34.4003 46.7432 34.6959 46.6209C34.9914 46.4987 35.3082 46.4359 35.628 46.4362C35.9478 46.4359 36.2645 46.4986 36.56 46.6209C36.8556 46.7432 37.1241 46.9225 37.3502 47.1486C37.5763 47.3748 37.7557 47.6433 37.8779 47.9388C38.0002 48.2343 38.063 48.551 38.0627 48.8708C38.063 49.1907 38.0002 49.5074 37.8779 49.8029C37.7557 50.0984 37.5763 50.3669 37.3502 50.5931C37.1241 50.8192 36.8556 50.9985 36.56 51.1208C36.2645 51.243 35.9478 51.3058 35.628 51.3055V51.3058Z" fill="url(#paint1_linear)"/>
</g>
<defs>
<linearGradient id="paint0_linear" x1="5.40033" y1="5.0142" x2="33.0852" y2="32.4229" gradientUnits="userSpaceOnUse">
<stop stop-color="#387EB8"/>
<stop offset="1" stop-color="#366994"/>
</linearGradient>
<linearGradient id="paint1_linear" x1="22.3932" y1="22.6147" x2="52.1236" y2="50.7198" gradientUnits="userSpaceOnUse">
<stop stop-color="#FFE052"/>
<stop offset="1" stop-color="#FFC331"/>
</linearGradient>
<clipPath id="clip0">
<rect width="56" height="55.7812" fill="white"/>
</clipPath>
</defs>
</svg>
