<svg width="56" height="42" viewBox="0 0 56 42" fill="none" xmlns="http://www.w3.org/2000/svg">
<path d="M48.1865 24.1748C46.2383 24.1849 44.5449 24.6541 43.1272 25.3478C42.6068 24.3175 42.0866 23.3996 41.995 22.7263C41.8928 21.941 41.7705 21.4615 41.8928 20.523C42.0153 19.5846 42.5661 18.2483 42.5559 18.1463C42.5458 18.0444 42.4334 17.5649 41.3114 17.5548C40.1894 17.5445 39.2204 17.769 39.1081 18.0647C38.9959 18.3605 38.7818 19.0338 38.6389 19.7272C38.4451 20.7475 36.395 24.3888 35.222 26.2963C34.8445 25.5519 34.5181 24.8989 34.4466 24.3787C34.3446 23.5934 34.2221 23.1139 34.3446 22.1755C34.4671 21.237 35.0179 19.9009 35.0077 19.7988C34.9974 19.6968 34.8852 19.2173 33.7632 19.2073C32.641 19.197 31.6719 19.4214 31.5599 19.7172C31.4477 20.0131 31.3252 20.7066 31.0907 21.3799C30.856 22.0532 28.1326 28.1327 27.4186 29.7033C27.13 30.339 26.8274 30.9682 26.5108 31.5905C26.5108 31.5905 26.5005 31.6211 26.4699 31.6721C26.3704 31.8672 26.2684 32.061 26.164 32.2535V32.2636C26.0109 32.5392 25.8477 32.794 25.7661 32.794C25.7049 32.794 25.5927 32.0597 25.7865 31.06C26.1944 28.9486 27.1635 25.6641 27.1534 25.5519C27.1534 25.4906 27.337 24.9195 26.521 24.6235C25.7252 24.3278 25.4398 24.8173 25.3682 24.8173C25.2969 24.8173 25.2457 24.9908 25.2457 24.9908C25.2457 24.9908 26.1334 21.2983 23.5526 21.2983C21.9411 21.2983 19.7173 23.0629 18.6156 24.6541C17.3633 25.3356 16.1121 26.0191 14.8619 26.7045C14.2603 27.0411 13.638 27.3778 13.0565 27.6939C13.0156 27.6532 12.9749 27.602 12.934 27.5613C9.8127 24.2258 4.03945 21.8694 4.28423 17.3916C4.3761 15.7595 4.93698 11.4753 15.372 6.27322C23.9606 2.03997 30.795 3.21291 31.9782 5.81407C33.6713 9.52713 28.3163 16.4226 19.4419 17.422C16.0554 17.7996 14.2804 16.4939 13.8318 16.0043C13.3626 15.4942 13.291 15.4636 13.1176 15.5657C12.8321 15.7188 13.0156 16.1778 13.1176 16.4429C13.3829 17.1363 14.4743 18.3605 16.3205 18.9625C17.9526 19.4927 21.9205 19.7887 26.7249 17.9322C32.1005 15.8512 36.3031 10.0677 35.0689 5.22257C33.8345 0.305941 25.6743 -1.31587 17.9526 1.42791C13.3626 3.06022 8.3847 5.63053 4.80441 8.97632C0.550821 12.9543 -0.122492 16.4123 0.152914 17.8608C1.14254 23.0017 8.23179 26.3475 11.0674 28.8261C10.9246 28.9077 10.7918 28.9793 10.6798 29.0405C9.26188 29.7442 3.8557 32.5696 2.50929 35.5584C0.979352 38.9448 2.75429 41.3727 3.92723 41.6989C7.56876 42.7089 11.3122 40.8933 13.3217 37.8942C15.3311 34.8953 15.0863 30.9988 14.1582 29.2138C14.1479 29.1934 14.1378 29.1728 14.1173 29.1525C14.4845 28.9383 14.8619 28.7139 15.2292 28.4998C15.9042 28.1007 16.5878 27.7163 17.2795 27.3469C16.9326 28.2957 16.6775 29.4279 16.5552 31.06C16.4021 32.9778 17.1874 35.4665 18.2177 36.4456C18.6769 36.8744 19.2174 36.8844 19.5644 36.8844C20.7679 36.8844 21.3087 35.8848 21.9104 34.7015C22.6448 33.2532 23.3078 31.5701 23.3078 31.5701C23.3078 31.5701 22.4816 36.1195 24.7258 36.1195C25.5417 36.1195 26.3679 35.0585 26.7352 34.518V34.5281C26.7352 34.5281 26.7555 34.4974 26.7964 34.4261C26.878 34.2936 26.929 34.2118 26.929 34.2118V34.1916C27.2554 33.6203 27.9899 32.3248 29.0813 30.1725C30.4889 27.3981 31.8456 23.9301 31.8456 23.9301C31.8456 23.9301 31.9681 24.7766 32.3862 26.1843C32.6312 27.0105 33.1409 27.9183 33.549 28.7955C33.2227 29.2547 33.0186 29.5095 33.0186 29.5095L33.0289 29.5198C32.7635 29.8665 32.478 30.2438 32.1617 30.6113C31.0498 31.9372 29.724 33.4573 29.5402 33.8957C29.3259 34.4158 29.377 34.7934 29.7852 35.0994C30.081 35.3239 30.6112 35.3543 31.152 35.3239C32.1517 35.2523 32.8554 35.0076 33.2021 34.8547C33.7429 34.6608 34.3753 34.3649 34.9668 33.9263C36.0583 33.1204 36.7211 31.9678 36.6601 30.4482C36.6295 29.6117 36.3541 28.7752 36.0174 27.9896C36.1196 27.847 36.2112 27.7042 36.3134 27.5613C38.0371 25.0418 39.3735 22.2774 39.3735 22.2774C39.3735 22.2774 39.496 23.124 39.914 24.5318C40.1181 25.2458 40.5364 26.0211 40.9034 26.7758C39.2816 28.0918 38.2819 29.6217 37.9249 30.6214C37.2824 32.4779 37.7821 33.3142 38.7308 33.508C39.1591 33.5999 39.7712 33.3958 40.22 33.202C40.7912 33.0185 41.4645 32.7024 42.1072 32.2329C43.1988 31.4273 44.2492 30.3051 44.1879 28.7854C44.1573 28.0918 43.9738 27.4082 43.7187 26.7452C45.0958 26.1742 46.8707 25.8579 49.135 26.123C53.9906 26.6942 54.9494 29.7237 54.7656 30.999C54.5821 32.2738 53.562 32.9675 53.2256 33.1817C52.8887 33.396 52.7767 33.4673 52.8074 33.6203C52.848 33.8447 53.0112 33.8346 53.2969 33.7937C53.6948 33.7224 55.8471 32.7634 55.9388 30.4173C56.0919 27.4185 53.2357 24.1442 48.1865 24.1748ZM10.7308 36.8028C9.11904 38.5572 6.8751 39.2203 5.90604 38.6594C4.86566 38.0574 5.27363 35.4665 7.25245 33.6102C8.45601 32.4779 10.0065 31.4271 11.0368 30.7846C11.2713 30.6418 11.6183 30.4379 12.0365 30.1828C12.1078 30.1419 12.1487 30.1216 12.1487 30.1216L12.3935 29.9684C13.1176 32.6206 12.4241 34.9566 10.7308 36.8028ZM22.4613 28.8261C21.9002 30.1931 20.7272 33.6918 20.0132 33.498C19.4012 33.3348 19.0236 30.6827 19.8907 28.0612C20.3293 26.7452 21.2575 25.1743 21.7982 24.5625C22.6754 23.5831 23.6445 23.2565 23.879 23.6547C24.1749 24.1748 22.808 27.9693 22.4613 28.8261ZM32.1414 33.4571C31.9067 33.5796 31.6824 33.6612 31.5803 33.5999C31.509 33.559 31.6824 33.3958 31.6824 33.3958C31.6824 33.3958 32.8963 32.0903 33.3756 31.4986C33.6512 31.1519 33.9774 30.7439 34.3243 30.2848V30.4173C34.3243 31.9781 32.8145 33.0288 32.1412 33.4571H32.1414ZM39.608 31.7537C39.4345 31.6312 39.4651 31.2232 40.0466 29.9481C40.271 29.4483 40.8013 28.612 41.7093 27.8061C41.8112 28.1325 41.8828 28.4488 41.8725 28.7445C41.8622 30.7133 40.4548 31.4476 39.608 31.7537Z" fill="#CD6799"/>
</svg>
