<svg width="62" height="61" viewBox="0 0 62 61" fill="none" xmlns="http://www.w3.org/2000/svg">
<path fill-rule="evenodd" clip-rule="evenodd" d="M3 3L59 19.0091L17.3415 57.6977L3 3ZM3.6308 3.63745L17.5867 56.8646L58.1252 19.2161L3.6308 3.63745Z" fill="black" stroke="black" stroke-width="3"/>
<path fill-rule="evenodd" clip-rule="evenodd" d="M17.4407 7.35303L20.9591 20.9773L30.2394 11.255L33.9321 24.683L34.2604 24.7713L43.9101 15.6257L48.0372 28.9242L34.3825 25.2536L34.1497 25.4743L37.6049 38.0385L24.6356 34.4914L24.4857 34.6335L27.8323 47.5929L14.2962 43.6926L24.0014 34.4944L23.9524 34.3045L11.4909 30.8963L20.4517 21.5088L6.922 17.8718L17.4407 7.35303ZM20.734 21.8418L12.3075 30.6695L23.8273 33.8203L20.734 21.8418ZM24.5144 34.0082L24.3097 33.9522L21.1444 21.695L33.5794 25.0377L33.6621 25.3383L24.5144 34.0082ZM25.0041 34.1421L36.9842 37.4187L33.7926 25.8128L25.0041 34.1421ZM33.446 24.5523L30.0241 12.1093L21.2708 21.2794L33.446 24.5523ZM20.5379 21.0824L17.2104 8.19728L7.76013 17.6475L20.5379 21.0824ZM24.1255 34.9749L15.1457 43.4856L27.2219 46.9652L24.1255 34.9749ZM34.752 24.9034L47.3891 28.3005L43.7023 16.4207L34.752 24.9034Z" fill="black" stroke="black" stroke-width="2"/>
</svg>
