<svg width="56" height="56" viewBox="0 0 56 56" fill="none" xmlns="http://www.w3.org/2000/svg">
<path d="M0 28V56H56V0H0V28Z" fill="#007ACC"/>
<path d="M12.3838 28.1859L12.3661 30.4791H19.6548V51.1903H24.8108V30.4791H32.0995V28.2303C32.0995 26.9856 32.0728 25.9457 32.0374 25.919C32.0107 25.8836 27.5751 25.8656 22.1974 25.8746L12.4107 25.9013L12.384 28.1857L12.3838 28.1859Z" fill="white"/>
<path d="M45.1867 25.8362C46.6088 26.1919 47.6934 26.8227 48.6889 27.8539C49.2045 28.4052 49.9688 29.4097 50.0312 29.6496C50.0487 29.7207 47.6133 31.3563 46.1378 32.2718C46.0845 32.3075 45.871 32.0762 45.631 31.7205C44.9111 30.6719 44.1555 30.2184 42.9999 30.1385C41.3024 30.0228 40.2088 30.9118 40.2178 32.396C40.2178 32.8318 40.2799 33.0895 40.4578 33.4452C40.8312 34.2185 41.5244 34.6807 43.7023 35.6228C47.7111 37.3475 49.4265 38.4852 50.4934 40.1028C51.6845 41.9075 51.9511 44.7874 51.1422 46.9296C50.2534 49.2584 48.0491 50.8408 44.9465 51.3652C43.9867 51.534 41.7112 51.5074 40.68 51.3208C38.4313 50.9207 36.2978 49.8096 34.9823 48.3519C34.4667 47.7829 33.4622 46.2985 33.5245 46.1917C33.5512 46.1563 33.7822 46.0141 34.0399 45.863C34.2888 45.7208 35.2312 45.1783 36.12 44.6629L37.7289 43.7295L38.0666 44.2274C38.5378 44.9473 39.5688 45.934 40.1911 46.2628C41.9777 47.2052 44.4312 47.0718 45.64 45.9872C46.1556 45.5162 46.3688 45.0273 46.3688 44.3072C46.3688 43.6584 46.2888 43.374 45.951 42.8853C45.5157 42.263 44.6267 41.7384 42.1021 40.6453C39.2133 39.4006 37.9688 38.6274 36.8311 37.4006C36.1733 36.6897 35.551 35.5517 35.2933 34.6006C35.08 33.8096 35.0264 31.8273 35.1955 31.0273C35.7912 28.2361 37.8978 26.2896 40.9377 25.7117C41.9243 25.5251 44.2177 25.5962 45.1867 25.8364V25.8362Z" fill="white"/>
</svg>
