<svg width="56" height="56" viewBox="0 0 56 56" fill="none" xmlns="http://www.w3.org/2000/svg">
<mask id="mask0" mask-type="alpha" maskUnits="userSpaceOnUse" x="0" y="0" width="56" height="56">
<path d="M39.5562 55.2579C40.0001 55.431 40.4748 55.5109 40.9509 55.4926C41.4269 55.4743 41.8941 55.3582 42.3234 55.1516L53.808 49.6255C54.3995 49.3407 54.8986 48.8948 55.2478 48.3389C55.5971 47.783 55.7823 47.1399 55.7822 46.4834V9.0124C55.7823 8.35596 55.597 7.71283 55.2478 7.15701C54.8985 6.60118 54.3995 6.15525 53.808 5.87049L42.3236 0.344214C41.6747 0.031949 40.9447 -0.0708665 40.2348 0.0499985C39.5248 0.170864 38.87 0.509431 38.361 1.01884L16.3751 21.0771L6.79819 13.8076C6.3662 13.4797 5.83304 13.3134 5.29122 13.3375C4.74941 13.3615 4.23312 13.5746 3.83194 13.9395L0.76047 16.7336C-0.252342 17.6548 -0.253436 19.2481 0.757845 20.1708L9.06313 27.7479L0.757845 35.3247C-0.253436 36.2477 -0.252342 37.8408 0.76047 38.7622L3.83194 41.5561C4.23309 41.9211 4.74937 42.1341 5.29118 42.1582C5.833 42.1824 6.36617 42.0161 6.79819 41.6882L16.3751 34.4185L38.361 54.4767C38.7009 54.8172 39.1079 55.0832 39.5562 55.2579ZM41.8452 15.0847L25.1629 27.7479L41.8452 40.4109V15.0847Z" fill="white"/>
</mask>
<g mask="url(#mask0)">
<path d="M53.8421 5.87913L42.3485 0.34519C41.6994 0.0326726 40.9692 -0.0703619 40.259 0.0503441C39.5487 0.17105 38.8936 0.509528 38.3841 1.01894L0.758256 35.3248C-0.253682 36.2478 -0.252369 37.8409 0.760881 38.7623L3.83432 41.5562C4.23583 41.9212 4.75243 42.1343 5.29456 42.1584C5.83669 42.1826 6.37018 42.0162 6.80254 41.6883L52.1127 7.31478C53.6328 6.16175 55.8161 7.24588 55.8161 9.15381V9.02038C55.8161 8.36406 55.6308 7.72108 55.2816 7.16538C54.9324 6.60968 54.4334 6.16384 53.8421 5.87913Z" fill="#0065A9"/>
<path d="M53.842 49.616L42.3484 55.1499C41.6993 55.4624 40.9691 55.5654 40.2589 55.4447C39.5486 55.3239 38.8935 54.9855 38.384 54.4762L0.758134 20.1702C-0.253804 19.2476 -0.252492 17.6542 0.760759 16.733L3.8342 13.9389C4.23573 13.5739 4.75234 13.3609 5.29448 13.3368C5.83661 13.3127 6.37008 13.479 6.80242 13.807L52.1125 48.1803C53.6326 49.3333 55.816 48.2492 55.816 46.3411V46.4747C55.8159 47.131 55.6307 47.774 55.2815 48.3297C54.9323 48.8854 54.4333 49.3312 53.842 49.616Z" fill="#007ACC"/>
<path d="M42.3125 55.1543C41.6632 55.4666 40.9329 55.5695 40.2227 55.4487C39.5124 55.3279 38.8572 54.9893 38.3477 54.4799C39.6341 55.7662 41.8341 54.8551 41.8341 53.0355V2.46598C41.8341 0.646419 39.6341 -0.264674 38.3477 1.02179C38.8571 0.512343 39.5123 0.173778 40.2226 0.0529215C40.9329 -0.0679352 41.6632 0.0348871 42.3125 0.347169L53.8041 5.87345C54.3958 6.158 54.8951 6.60387 55.2446 7.15971C55.594 7.71556 55.7794 8.35879 55.7794 9.01536V46.4866C55.7794 47.8264 55.0116 49.0479 53.8041 49.6285L42.3125 55.1545V55.1543Z" fill="#1F9CF0"/>
<path d="M39.5562 55.2576C40.0001 55.4306 40.4748 55.5105 40.9509 55.4922C41.4269 55.4739 41.8941 55.3578 42.3234 55.1513L53.8078 49.625C54.3993 49.3403 54.8984 48.8944 55.2477 48.3385C55.597 47.7827 55.7823 47.1395 55.7822 46.4831V9.01206C55.7823 8.35562 55.597 7.71249 55.2478 7.15667C54.8985 6.60084 54.3995 6.15491 53.808 5.87015L42.3232 0.343654C41.6743 0.0314399 40.9444 -0.0713484 40.2345 0.0495155C39.5246 0.170379 38.8698 0.508919 38.3608 1.01828L16.3751 21.0768L6.79819 13.8073C6.3662 13.4794 5.83304 13.313 5.29122 13.3371C4.74941 13.3612 4.23312 13.5742 3.83194 13.9392L0.76047 16.7333C-0.252342 17.6544 -0.253436 19.2478 0.757845 20.1705L9.06313 27.7476L0.757845 35.3244C-0.253436 36.2473 -0.252342 37.8405 0.76047 38.7618L3.83194 41.5557C4.23309 41.9207 4.74937 42.1338 5.29118 42.1579C5.833 42.182 6.36617 42.0157 6.79819 41.6878L16.3751 34.4181L38.3608 54.4764C38.7007 54.8169 39.1079 55.0829 39.5562 55.2576ZM41.8452 15.0841L25.1629 27.7476L41.8452 40.4106V15.0843V15.0841Z" fill="url(#paint0_linear)" fill-opacity="0.25"/>
</g>
<defs>
<linearGradient id="paint0_linear" x1="27.8912" y1="0.000244141" x2="27.8912" y2="55.4948" gradientUnits="userSpaceOnUse">
<stop stop-color="white"/>
<stop offset="1" stop-color="white" stop-opacity="0"/>
</linearGradient>
</defs>
</svg>
