<svg width="56" height="65" viewBox="0 0 56 65" fill="none" xmlns="http://www.w3.org/2000/svg">
<g clip-path="url(#clip0)">
<path d="M28 0.93103L56 16.7696V48.4571L28 64.2957L0 48.4571V16.7696L28 0.93103Z" fill="white"/>
<path d="M51.0023 47.3582L28.93 59.8576V50.137L42.687 42.5613L51.0023 47.3582ZM52.5133 45.9952V19.876L44.4409 24.5354V41.3354L52.5133 45.9952ZM4.91325 47.358L26.9858 59.8473V50.1265L13.2288 42.5613L4.91325 47.3582V47.358ZM3.40234 45.9952V19.876L11.4749 24.5354V41.3354L3.40234 45.9952ZM4.34297 18.1855L26.9858 5.37925V14.7833L12.4787 22.7605L12.3623 22.8239L4.34297 18.1853V18.1855ZM51.5623 18.1855L28.93 5.37903V14.7831L43.4266 22.7707L43.5428 22.8342L51.5623 18.1851V18.1855Z" fill="#8ED6FB"/>
<path d="M26.9858 47.9183L13.4189 40.448V25.6662L26.9858 33.4957V47.9183ZM28.9301 47.9183L42.4969 40.4587V25.6662L28.9301 33.4957V47.9183ZM14.3276 23.9544L27.9579 16.4631L41.5773 23.9544L27.9579 31.8157L14.3276 23.9544Z" fill="#1C78C0"/>
</g>
<defs>
<clipPath id="clip0">
<rect y="0.920532" width="56" height="63.4375" fill="white"/>
</clipPath>
</defs>
</svg>
