<svg width="56" height="57" viewBox="0 0 56 57" fill="none" xmlns="http://www.w3.org/2000/svg">
<g clip-path="url(#clip0)">
<path d="M3.96463 28.6523C3.96463 38.1234 9.46837 46.3079 17.4497 50.1865L6.03619 18.9149C4.66799 21.9787 3.96207 25.2969 3.96463 28.6523ZM44.0442 27.4448C44.0442 24.488 42.982 22.4401 42.0711 20.8463C40.8581 18.8753 39.7213 17.2063 39.7213 15.2353C39.7213 13.0358 41.3895 10.9883 43.7393 10.9883C43.8454 10.9883 43.9458 11.0014 44.0492 11.0075C39.7924 7.10744 34.1208 4.72634 27.8917 4.72634C19.5326 4.72634 12.1785 9.01516 7.90016 15.5112C8.46147 15.528 8.99041 15.5396 9.43994 15.5396C11.9424 15.5396 15.8165 15.2362 15.8165 15.2362C17.1065 15.1601 17.2585 17.0544 15.9701 17.2071C15.9701 17.2071 14.6737 17.3596 13.2313 17.4351L21.945 43.3524L27.1812 27.6483L23.4533 17.4344C22.1648 17.3589 20.9442 17.2065 20.9442 17.2065C19.6549 17.1308 19.8061 15.1594 21.0954 15.2355C21.0954 15.2355 25.0469 15.5392 27.3978 15.5392C29.9003 15.5392 33.7746 15.2355 33.7746 15.2355C35.0652 15.1594 35.217 17.0538 33.9281 17.2065C33.9281 17.2065 32.6292 17.3589 31.1894 17.4344L39.8363 43.1553L42.2229 35.1801C43.2572 31.8706 44.0444 29.4937 44.0444 27.4451L44.0442 27.4448ZM28.3115 30.7453L21.1326 51.606C23.3274 52.2524 25.6036 52.5807 27.8917 52.5808C30.6779 52.5808 33.35 52.0991 35.8374 51.2245C35.771 51.1199 35.7139 51.0095 35.667 50.8949L28.3115 30.7453ZM48.8867 17.173C48.9895 17.9351 49.0479 18.7533 49.0479 19.6333C49.0479 22.0614 48.5944 24.7908 47.2286 28.2035L39.9199 49.3347C47.0332 45.1866 51.8177 37.48 51.8177 28.653C51.8182 24.493 50.7555 20.5811 48.8865 17.173H48.8867ZM27.8917 0.761719C12.5125 0.761719 0 13.2733 0 28.6523C0 44.0333 12.5125 56.5445 27.8917 56.5445C43.2703 56.5445 55.7845 44.0333 55.7845 28.6523C55.7843 13.2733 43.2705 0.761719 27.8919 0.761719H27.8917ZM27.8917 55.2661C13.218 55.2661 1.27881 43.3272 1.27881 28.6523C1.27881 13.9786 13.2173 2.04053 27.8917 2.04053C42.565 2.04053 54.5031 13.9786 54.5031 28.6523C54.5031 43.3272 42.565 55.2661 27.8917 55.2661Z" fill="#464342"/>
</g>
<defs>
<clipPath id="clip0">
<rect y="0.761719" width="56" height="55.7812" fill="white"/>
</clipPath>
</defs>
</svg>
